<?xml version="1.0" encoding="utf-8"?>
<!DOCTYPE svg PUBLIC "-//W3C//DTD SVG 1.0//EN" "http://www.w3.org/TR/2001/REC-SVG-20010904/DTD/svg10.dtd">
<svg version="1.0" xmlns="http://www.w3.org/2000/svg" width="900px" height="346px" viewBox="0 0 900 346" preserveAspectRatio="xMidYMid meet">
 <g fill="none" stroke="#000000" stroke-width="0.541">
  <path d="M0 173.08 l0 -173.08 450 0 450 0 0 173.08 0 173.08 -450 0 -450 0 0 -173.08z m194.44 146.09 c1.35 -0.27 1.68 -0.65 1.78 -2.11 0.11 -1.08 -0.27 -2.43 -0.92 -3.57 -1.78 -2.87 -5.03 -5.19 -28.18 -20.44 -12.17 -8.06 -15.14 -10.33 -14.44 -11.03 0.43 -0.49 5.73 2.54 18.23 10.33 14.44 8.98 20.50 12.49 26.23 15.20 4.71 2.16 10.66 4 13.20 4 2.11 0 4.22 -1.51 6.71 -4.71 5.03 -6.60 4.98 -7.95 -0.65 -13.85 -3.46 -3.68 -9.19 -7.68 -23.58 -16.60 -6.81 -4.22 -15.58 -9.63 -19.47 -12.06 -16.23 -10.01 -25.37 -16.55 -24.45 -17.47 0.27 -0.27 2.27 0.49 4.44 1.62 5.46 2.76 9.79 5.41 39.75 24.34 10.22 6.49 15.47 9.52 21.09 12.17 4.49 2.16 10.17 3.95 10.93 3.46 0.76 -0.43 1.46 -4.22 2 -10.71 0.97 -10.87 0.92 -11.47 -1.35 -13.58 -2.97 -2.81 -10.38 -7.52 -35.53 -22.61 -28.61 -17.15 -37.37 -22.88 -35.64 -23.47 1.08 -0.32 8.55 3.84 31.48 17.63 22.61 13.63 38.40 22.28 40.56 22.28 1.08 0 1.08 -0.27 1.08 -12.17 l0 -12.17 -2.81 -2.22 c-6.06 -4.76 -21.09 -14.44 -44.51 -28.61 -14.60 -8.82 -18.17 -11.36 -15.79 -11.36 1.19 0 16.93 8.76 32.56 18.06 13.31 8 28.40 16.01 30.02 16.01 0.32 0 0.54 -4.44 0.54 -12.87 0 -15.04 0.92 -12.87 -8.11 -18.88 -8.06 -5.35 -15.47 -9.47 -37.48 -20.93 -21.96 -11.41 -24.39 -12.82 -26.77 -15.90 -2.65 -3.30 -3.35 -5.52 -3.35 -10.22 0 -3.57 0.27 -4.76 1.62 -7.57 1.03 -2.27 2.16 -3.73 3.35 -4.49 2.33 -1.41 2.49 -0.76 1.24 4.44 -1.30 5.30 -0.92 10.87 0.97 14.12 3.08 5.25 7.84 8.22 34.18 21.47 18.39 9.25 28.18 13.58 32.34 14.33 l2 0.38 0 -12.22 0 -12.22 -2 -1.24 c-1.14 -0.70 -7.14 -3.79 -13.41 -6.81 -14.28 -6.92 -21.36 -10.82 -21.36 -11.79 0 -0.38 0.11 -0.70 0.27 -0.70 0.70 0 9.74 3.84 18.12 7.68 10.55 4.87 15.74 6.92 17.31 6.92 1.03 0 1.08 -0.38 1.08 -11.30 l0 -11.36 -2.27 -1.84 c-9.30 -7.52 -25.91 -15.31 -38.35 -17.96 -5.79 -1.24 -14.82 -2.43 -18.88 -2.43 -5.57 0 -5.79 -0.16 -6.22 -3.68 -1.57 -13.25 -8.49 -35.10 -14.50 -45.65 -6.92 -12.12 -19.63 -24.56 -30.13 -29.53 -9.25 -4.38 -17.31 -1.30 -17.31 6.60 0.05 4.65 1.73 7.57 11.25 19.42 3.14 3.95 7.14 9.36 8.92 12.01 8.71 13.25 13.68 27.53 14.06 40.67 l0.16 5.30 2.65 0.27 2.70 0.27 0.27 5.95 0.27 5.95 1.78 -2.70 c2.70 -4.11 3.57 -7.68 3.52 -14.60 0 -6.65 -0.97 -12.17 -3.68 -21.09 -4.27 -13.95 -10.38 -24.88 -22.01 -39.10 -5.68 -6.98 -5.95 -7.95 -1.19 -4.87 4.16 2.76 12.66 11.57 16.01 16.66 8.17 12.44 14.28 30.18 16.66 48.41 0.32 2.70 0.81 5.08 1.03 5.30 0.27 0.27 1.41 0.22 2.54 -0.11 3.35 -0.92 8.82 -0.70 11.41 0.43 1.19 0.59 3.30 2.16 4.54 3.52 2.27 2.38 2.49 2.49 5.35 2.49 8.28 0 21.69 4.54 32.72 11.09 10.44 6.22 10.28 7.68 -0.27 2.70 -16.60 -7.73 -26.29 -10.71 -30.83 -9.47 -4.60 1.24 -6.98 5.19 -6.33 10.60 0.70 6.60 6.38 10.60 35.81 25.58 12.60 6.38 15.96 8.38 15.25 9.09 -0.65 0.59 -7.09 -2.11 -20.34 -8.55 -15.90 -7.73 -27.96 -14.55 -31.15 -17.47 l-2.33 -2.22 -0.38 -4.98 c-0.38 -5.25 -0.27 -6.17 1.46 -9.74 l1.14 -2.27 -1.30 -2.60 c-1.95 -3.84 -4.87 -5.68 -9.25 -5.73 -8.11 -0.11 -16.33 7.03 -19.36 16.82 -1.51 4.98 -1.51 13.52 0.05 17.74 2.70 7.25 8.17 11.74 23.96 19.74 14.66 7.41 27.42 14.22 34.94 18.61 11.63 6.81 23.26 14.55 23.26 15.52 0 1.46 -4.98 -1.08 -23.53 -12.01 -16.23 -9.63 -40.02 -21.80 -46.89 -24.01 -5.73 -1.84 -10.17 -2.06 -11.74 -0.59 -1.03 0.87 -1.14 1.62 -1.14 8.17 l0 7.19 3.19 2.65 c3.73 3.14 12.28 8.82 23.31 15.52 37.81 22.99 53 32.99 52.14 34.40 -0.43 0.76 -4.22 -1.41 -26.02 -14.82 -20.39 -12.49 -27.91 -16.82 -35.86 -20.61 -6 -2.87 -13.31 -4.98 -15.36 -4.44 l-1.41 0.32 0 10.01 0 10.01 2.87 2.22 c4.76 3.79 11.30 8 29.04 18.71 38.89 23.42 51.06 31.48 49.65 32.88 -0.76 0.81 -18.88 -9.84 -36.78 -21.53 -23.20 -15.20 -36.72 -21.96 -42.84 -21.36 l-1.68 0.16 -0.16 10.76 c-0.11 9.68 -0.05 10.87 0.81 11.84 2.11 2.33 16.50 11.68 37.48 24.45 9.30 5.63 22.34 14.06 25.04 16.17 0.87 0.65 1.30 1.95 0.65 1.95 -0.92 0 -11.30 -5.68 -18.55 -10.11 -32.51 -19.96 -35.21 -21.42 -40.02 -21.47 -1.68 0 -3.62 0.27 -4.27 0.65 -1.19 0.65 -1.24 0.97 -1.24 7.68 0 9.90 0.54 12.01 4 15.31 1.51 1.46 7.30 5.73 12.93 9.41 5.57 3.68 10.11 6.92 10.11 7.19 0 0.22 -0.38 0.54 -0.81 0.76 -2.16 0.81 -3.68 5.63 -2.43 7.90 0.65 1.24 4.16 2.60 8.38 3.19 3.79 0.54 19.80 0.65 22.18 0.11z m167.94 -0.54 c1.30 -0.27 -0.76 -0.49 -6.76 -0.76 -9.47 -0.38 -16.17 -1.30 -23.96 -3.35 -5.79 -1.57 -6.27 -1.62 -4.44 -0.54 1.68 0.97 8.55 3.30 12.17 4.11 6.49 1.46 17.63 1.73 22.99 0.54z m376.12 0.22 c5.63 -0.97 7.03 -2.06 7.25 -5.30 0.16 -2.06 -0.05 -2.70 -1.46 -4.33 -0.92 -1.03 -1.68 -2.11 -1.68 -2.33 0 -0.27 1.95 -1.68 4.27 -3.08 6.98 -4.27 15.79 -10.66 18.82 -13.63 3.25 -3.30 3.46 -4.11 3.57 -14.50 0.11 -8.38 -0.11 -8.82 -5.08 -8.71 -4.49 0.11 -10.55 3.14 -29.15 14.66 -17.09 10.55 -22.28 13.58 -26.66 15.58 -3.19 1.46 -4.33 1.51 -3.14 0.05 1.08 -1.30 13.25 -9.14 33.97 -21.96 19.63 -12.17 28.61 -18.12 29.48 -19.69 0.59 -1.03 0.97 -21.09 0.43 -21.96 -0.70 -1.08 -6.38 -0.27 -11.25 1.62 -5.41 2.06 -14.82 7.57 -36.83 21.58 -26.39 16.77 -33.59 20.72 -33.59 18.50 0 -1.35 20.50 -14.39 60.31 -38.46 8.17 -4.92 16.33 -10.33 20.28 -13.47 l1.35 -1.08 0 -9.84 c0 -11.95 0.27 -11.57 -6.54 -9.84 -8.71 2.27 -18.55 7.36 -39.70 20.39 -27.69 17.15 -32.45 19.90 -32.45 18.55 0 -1.46 16.50 -12.49 42.19 -28.23 25.15 -15.36 35.70 -22.45 36.45 -24.39 0.54 -1.35 0.38 -12.44 -0.22 -13.95 -1.08 -2.97 -6.49 -2.87 -14.87 0.32 -10.66 4.06 -22.93 10.44 -45.54 23.74 -14.60 8.60 -20.72 11.84 -22.12 11.84 -4.92 0 27.10 -19.36 55.71 -33.64 5.95 -2.97 12.44 -6.49 14.39 -7.73 4.22 -2.81 9.14 -7.84 10.76 -10.93 2.33 -4.65 2.70 -13.31 0.81 -20.01 -0.92 -3.41 -5.46 -10.33 -8.06 -12.28 -4.76 -3.68 -11.09 -5.14 -15.25 -3.52 -2.16 0.81 -4.49 3.08 -5.57 5.57 -0.97 2.06 -0.92 2.11 0.38 5.03 1.19 2.60 1.30 3.46 1.14 8.28 l-0.16 5.35 -2.06 2.11 c-1.14 1.14 -4.65 3.62 -7.84 5.52 -11.52 6.87 -41.16 21.15 -43.81 21.09 -2 -0.05 3.14 -3.35 12.28 -7.95 25.96 -12.93 34.83 -18.50 37.37 -23.42 3.08 -6.11 0.59 -12.60 -5.35 -14.06 -4.54 -1.08 -13.03 1.41 -27.91 8.22 -11.25 5.14 -10.55 4.92 -10.55 3.95 0 -1.03 4.92 -4.27 12.39 -8.06 10.60 -5.35 20.55 -8.44 27.58 -8.44 3.08 0 3.41 -0.11 5.03 -1.95 3.95 -4.33 9.57 -6 15.58 -4.54 2.33 0.54 2.92 0.54 3.52 -0.05 0.38 -0.43 0.97 -3.30 1.30 -6.44 0.70 -6.38 3.57 -18.50 6.06 -26.07 2.22 -6.54 6.65 -15.85 10.17 -21.09 3.35 -4.98 10.38 -12.33 15.14 -15.79 6.17 -4.49 5.95 -3.46 -1.41 5.68 -6.98 8.82 -12.17 16.55 -15.14 22.66 -7.41 15.31 -11.14 34.62 -8.55 44.62 0.81 3.08 3.89 8.71 4.49 8.17 0.11 -0.16 0.22 -2.43 0.16 -5.03 -0.16 -6.33 0 -6.65 3.19 -6.65 l2.54 0 0.32 -6.60 c0.22 -4.22 0.81 -8.65 1.68 -12.06 3.52 -14.28 8.33 -23.37 20.61 -38.67 7.03 -8.82 8.60 -11.03 10.28 -14.71 4 -8.55 -1.46 -15.79 -10.55 -14.01 -6.11 1.24 -13.14 5.73 -21.85 14.12 -6.65 6.38 -11.14 12.55 -15.41 21.15 -5.41 10.93 -10.28 26.50 -12.55 40.62 l-0.70 4.16 -4.06 0.32 c-11.30 0.87 -21.42 2.65 -28.99 4.98 -6 1.84 -19.63 8.65 -26.02 13.03 l-5.35 3.68 -0.27 3.62 c-0.16 2 -0.16 7.30 -0.11 11.74 0.22 7.46 0.27 8.11 1.19 8.11 1.08 0 7.46 -2.65 22.99 -9.63 10.44 -4.65 12.71 -5.46 12.71 -4.49 0 1.03 -4.60 3.57 -20.28 11.36 -8.33 4.11 -15.52 7.84 -16.01 8.33 -0.76 0.76 -0.87 2.33 -0.65 12.66 0.16 6.49 0.38 11.90 0.49 12.01 1.14 1.19 27.04 -10.66 49.98 -22.82 11.57 -6.17 15.85 -9.41 18.28 -14.17 1.78 -3.46 1.95 -9.19 0.43 -14.22 -1.35 -4.33 -0.70 -5.25 2 -2.87 2.92 2.60 4.38 6.49 4.38 11.68 -0.05 5.08 -0.92 7.41 -4.11 10.87 -2.87 3.08 -4.92 4.33 -25.58 14.98 -19.53 10.06 -30.61 16.23 -38.13 21.26 -7.90 5.30 -7.25 4.44 -7.63 10.11 -0.43 7.57 0.11 21.47 0.81 21.47 1.51 0 17.69 -8.87 33.59 -18.39 17.69 -10.55 28.07 -16.17 28.77 -15.52 0.22 0.22 0 0.76 -0.43 1.19 -0.70 0.70 -14.93 9.63 -30.88 19.42 -15.04 9.19 -30.72 19.58 -31.53 20.82 -0.32 0.59 -0.49 8.98 -0.38 18.34 0.11 6.22 0.16 6.60 1.19 6.60 2.43 0 18.55 -9.03 44.89 -25.10 12.55 -7.68 23.64 -13.95 25.91 -14.66 2.38 -0.70 0.92 0.97 -3.52 4.11 -2.33 1.68 -15.36 9.68 -28.88 17.79 -26.29 15.74 -35.59 21.63 -38.08 24.28 l-1.57 1.62 0.32 8.55 c0.38 8.65 0.92 12.82 1.84 13.74 0.59 0.59 6.33 -1.03 11.14 -3.19 5.19 -2.38 14.12 -7.73 34.67 -20.77 23.64 -15.09 31.15 -19.25 31.15 -17.25 0 1.35 -11.63 9.14 -36.78 24.66 -22.12 13.63 -24.07 14.93 -28.07 18.23 -4.06 3.35 -6.87 6.76 -7.46 9.03 -0.76 2.92 5.90 11.63 9.36 12.28 4.87 0.92 15.63 -3.73 32.13 -13.85 21.96 -13.41 26.02 -15.79 26.34 -15.47 0.76 0.70 -3.35 4.06 -11.57 9.41 -4.71 3.08 -12.66 8.28 -17.69 11.57 -12.28 8 -15.14 10.98 -14.17 14.71 0.43 1.68 0.97 1.78 12.22 1.84 5.57 0.05 10.55 -0.22 13.20 -0.70z m-363.19 -5.03 c3.30 -1.78 7.41 -5.73 9.90 -9.52 1.14 -1.78 2 -3.30 1.89 -3.41 -0.11 -0.05 -2.38 0.32 -5.03 0.87 -12.39 2.70 -28.88 2.92 -40.51 0.59 -10.38 -2.06 -21.47 -6.27 -29.69 -11.30 -2.06 -1.24 -3.84 -2.11 -4 -1.95 -0.70 0.70 3.89 10.49 6.76 14.50 2.92 4 8.87 6.49 22.39 9.30 9.68 2 13.58 2.33 25.37 2.27 9.95 -0.11 10.71 -0.16 12.93 -1.35z m174.32 -5.30 c3.08 -3.46 6 -6.87 6.54 -7.57 0.54 -0.70 1.24 -1.30 1.57 -1.30 0.70 0 0.16 1.57 -2.87 8.28 -1.46 3.19 -2.65 6 -2.65 6.27 0 0.22 2.38 0.11 5.30 -0.27 8.76 -1.24 7.79 -0.49 10.93 -7.95 1.57 -3.62 3.62 -9.41 4.60 -12.93 5.30 -18.34 4.38 -25.31 -3.35 -25.31 -2.54 0 -4.92 2.43 -12.71 13.03 -9.41 12.82 -24.61 30.56 -25.80 30.18 -0.81 -0.27 2 -4.54 9.09 -13.90 15.14 -20.01 25.80 -35.81 34.72 -51.33 2.70 -4.71 5.14 -8.76 5.46 -9.09 0.38 -0.38 0.43 0.92 0.16 4.06 -1.30 15.74 -1.24 29.15 0.22 34.40 1.51 5.57 5.63 8.60 11.03 8.17 1.73 -0.16 3.46 -0.54 3.84 -0.87 1.51 -1.24 2 -7.52 2.33 -28.72 0.27 -18.88 0.05 -27.15 -0.70 -26.39 -0.49 0.49 -2.49 15.47 -3.62 26.94 -0.65 6.54 -1.41 12.01 -1.73 12.06 -0.81 0.16 -0.97 -10.11 -0.27 -18.55 0.32 -4 1.19 -12.28 1.89 -18.39 2.60 -21.31 1.57 -27.04 -4.65 -27.04 -2.76 0 -4.27 1.84 -9.14 11.14 -15.63 29.75 -25.10 44.95 -42.35 67.99 -10.44 13.95 -19.85 27.26 -19.85 28.07 0 1.68 14.98 4.92 24.18 5.25 2.22 0.05 2.33 -0.05 7.84 -6.22z m26.61 0.27 c4.54 -2.33 7.95 -4.87 11.09 -8.44 2.87 -3.25 6.54 -9.63 6.54 -11.41 0 -1.30 -2.16 -2.81 -4.49 -3.19 -2.92 -0.43 -4.44 1.30 -8.55 10.01 -2.06 4.27 -4.81 9.36 -6.17 11.25 -1.35 1.89 -2.33 3.46 -2.11 3.46 0.16 0 1.84 -0.76 3.68 -1.68z m-204.77 -8.33 c5.30 -0.76 8.92 -1.57 15.04 -3.30 2.60 -0.76 2.81 -0.97 3.41 -3.08 0.81 -2.87 2.22 -10.33 2 -10.55 -0.11 -0.05 -2.22 0.59 -4.71 1.51 -2.49 0.97 -7.09 2.33 -10.22 3.14 -5.25 1.35 -6.54 1.46 -16.77 1.46 -11.90 0 -16.01 -0.54 -24.34 -3.30 -5.79 -1.95 -16.06 -7.09 -22.93 -11.52 -3.25 -2.11 -6.27 -3.84 -6.71 -3.84 -0.70 0 -0.76 0.92 -0.54 5.95 0.22 3.57 0.59 6.27 0.97 6.76 2.49 3.03 16.06 10.17 24.45 12.93 5.46 1.78 14.93 3.84 19.63 4.27 5.52 0.49 15.69 0.27 20.72 -0.43z m144.36 -0.87 c11.36 -5.46 40.73 -47.49 60.74 -86.75 12.55 -24.72 19.42 -47.49 21.63 -72.21 1.14 -11.95 0.65 -53.49 -0.59 -58.52 -0.76 -2.92 -3.19 -4.76 -6.33 -4.76 -7.09 0 -9.03 5.30 -8.11 21.91 1.46 26.94 1.08 45.27 -1.19 60.36 -3.41 22.45 -8.92 37.10 -24.77 65.39 -10.17 18.28 -25.37 41.38 -25.96 39.59 -0.22 -0.70 0.97 -2.87 8.49 -15.52 12.76 -21.47 21.42 -37.81 27.10 -51.11 14.01 -32.72 17.25 -65.50 10.60 -106.55 -1.14 -6.98 -1.14 -6.98 1.03 -7.90 1.19 -0.49 2.27 -1.51 2.92 -2.81 2.27 -4.44 5.25 -6.22 10.06 -6.17 2.76 0 3.46 -0.16 4.76 -1.41 1.35 -1.30 1.46 -1.73 1.46 -5.57 0 -4.22 -1.03 -10.82 -2.11 -13.68 -0.59 -1.41 -0.76 -1.51 -2.70 -1.19 -1.14 0.16 -6.27 1.68 -11.47 3.35 -20.44 6.54 -26.99 7.52 -50.63 7.52 l-17.96 0 -0.27 1.41 c-0.16 0.76 -0.43 3.25 -0.65 5.46 l-0.38 4.11 3.19 0.32 c7.73 0.76 19.58 0.92 27.96 0.38 11.95 -0.81 18.82 -1.78 28.61 -4.16 7.36 -1.84 10.06 -2.06 8 -0.70 -0.43 0.27 -3.46 1.51 -6.65 2.76 -6.22 2.43 -8.17 3.84 -8.65 6.27 -0.16 0.81 0.32 4.71 1.03 8.65 4.71 25.42 5.19 49.27 1.51 71.50 -4.16 25.15 -16.50 51.71 -47.27 101.95 -16.33 26.61 -18.34 32.56 -12.71 37.54 2.38 2.06 5.73 2.27 9.30 0.54z m-147.33 -14.01 c7.25 -0.70 12.12 -1.68 18.88 -3.84 l5.25 -1.68 0.16 -5.68 c0.11 -3.14 0 -5.95 -0.16 -6.22 -0.22 -0.38 -0.76 -0.32 -1.57 0.11 -1.84 0.97 -10.06 3.73 -13.85 4.60 -5.46 1.24 -15.25 2.06 -20.77 1.62 -16.82 -1.14 -35.32 -9.14 -41.65 -17.90 -3.57 -5.03 -5.35 -13.20 -5.90 -27.26 -0.38 -10.33 0.11 -26.72 1.03 -32.18 0.76 -4.98 2.49 -6.44 4.87 -4.06 1.03 1.03 1.08 1.84 1.08 17.74 0.05 26.34 1.03 34.40 5.25 42.46 4 7.57 12.55 13.14 23.96 15.58 4.87 1.03 7.36 1.19 17.31 1.24 10.28 0 12.12 -0.16 15.85 -1.19 5.25 -1.46 8.98 -3.30 12.39 -6.11 l2.60 -2.22 -0.05 -14.39 c-0.05 -10.28 -0.22 -13.79 -0.54 -12.28 -0.32 1.19 -0.87 3.73 -1.35 5.68 -2.27 9.95 -8 16.17 -16.98 18.44 -4.27 1.08 -20.55 0.92 -26.23 -0.22 -9.25 -1.89 -16.28 -7.09 -18.28 -13.52 -1.46 -4.71 -1.95 -12.55 -2 -32.61 0 -20.93 -0.22 -22.23 -3.79 -26.29 -3.08 -3.57 -6.60 -4.92 -11.84 -4.65 -2.27 0.16 -4.76 0.54 -5.57 0.87 l-1.51 0.65 0 40.78 0 40.78 3.68 3.41 c8.22 7.79 18.88 13.14 32.29 16.33 9.79 2.38 17.69 2.92 27.48 2z m131 -7.79 c6.38 -3.14 12.55 -10.76 23.31 -28.72 11.84 -19.74 18.01 -31.91 26.72 -53.06 6.17 -14.93 7.36 -18.28 9.74 -27.53 3.68 -14.33 4.87 -25.42 4.87 -46.03 0 -23.20 -2.11 -39.32 -5.73 -43.22 l-1.41 -1.51 -7.09 0.32 c-3.95 0.22 -14.28 0.54 -22.93 0.76 l-15.85 0.32 0 5.68 0 5.63 13.41 -0.32 c7.36 -0.16 15.69 -0.49 18.50 -0.65 4.76 -0.27 5.25 -0.22 6.17 0.81 1.57 1.68 2.38 7.14 3.08 20.34 0.54 9.25 0.54 14.66 0.05 24.07 -1.19 22.66 -3.62 33.16 -12.55 54.63 -10.82 25.96 -21.80 47.65 -31.64 62.47 -4.49 6.76 -10.33 13.79 -11.41 13.79 -0.59 0 -0.59 -0.38 0.11 -2.27 1.03 -2.92 7.46 -15.74 12.39 -24.50 17.47 -31.42 23.80 -45.87 24.45 -55.87 0.38 -5.73 -0.38 -8.71 -2.70 -11.30 -1.41 -1.51 -2.27 -1.95 -4.27 -2.16 -5.41 -0.59 -8.98 3.19 -18.06 18.98 -12.44 21.69 -26.18 43.97 -27.80 44.95 -0.27 0.16 -0.54 0 -0.54 -0.38 0 -1.08 7.09 -13.95 14.98 -27.21 10.17 -17.09 16.17 -28.07 17.96 -32.72 3.19 -8.33 3.41 -13.58 0.76 -16.33 -2.76 -2.87 -2.87 -2.49 -2.87 9.30 0 5.95 -0.16 10.82 -0.38 10.82 -0.27 0 -0.97 -0.76 -1.62 -1.73 -2.38 -3.41 -10.71 -13.90 -11.09 -13.95 -0.38 0 -2.11 2.38 -15.85 21.63 -17.47 24.56 -21.36 29.64 -21.36 27.69 0 -1.03 5.79 -10.01 17.58 -27.10 7.03 -10.28 13.74 -20.23 14.93 -22.18 2.06 -3.41 2.06 -3.52 1.19 -4.87 -1.57 -2.49 -10.60 -13.58 -11.03 -13.58 -0.65 0 -12.93 14.33 -21.09 24.61 -11.41 14.44 -18.93 23.53 -19.47 23.53 -0.27 0 -0.49 -0.27 -0.49 -0.54 0 -1.03 6.27 -9.95 16.39 -23.42 15.31 -20.28 19.85 -27.21 19.85 -30.23 0 -0.87 -7.36 -11.03 -8.98 -12.39 -0.65 -0.54 -1.08 -0.49 -2.16 0.11 -2.92 1.51 -8.55 7.36 -15.85 16.39 -8.92 10.98 -15.31 17.25 -21.04 20.61 -4.06 2.38 -9.14 4.44 -9.63 3.89 -0.16 -0.16 2 -1.84 4.76 -3.68 9.63 -6.60 18.82 -16.66 22.88 -25.04 2.65 -5.52 4.16 -12.39 4.22 -18.98 0 -6.71 -1.14 -11.68 -3.84 -16.71 -2.49 -4.65 -5.08 -6.81 -8.44 -7.19 -2.27 -0.27 -2.60 -0.16 -4.27 1.51 -1.78 1.78 -1.89 2.11 -2.22 6.98 -1.62 23.15 -7.52 35.10 -19.36 39.10 -4.33 1.51 -20.93 5.14 -28.61 6.27 -4 0.59 -11.30 1.51 -16.23 1.95 -4.87 0.49 -9.74 1.08 -10.76 1.35 -2.27 0.59 -4.16 2.49 -6.22 6.22 -0.87 1.51 -2.43 3.89 -3.46 5.41 l-1.95 2.65 -0.16 17.90 c-0.22 25.15 0.49 43.76 1.73 46.24 3.68 7.19 11.63 9.84 18.88 6.27 2.38 -1.14 3.41 -2.06 4.60 -4 l1.46 -2.54 0 -15.96 c0 -8.76 0.22 -16.28 0.49 -16.71 0.32 -0.49 1.08 -0.59 2.27 -0.43 1.51 0.27 2.22 0 4.11 -1.62 3.14 -2.65 5.19 -3.41 9.09 -3.41 l3.30 0 -0.16 -2.81 -0.16 -2.87 -12.71 -0.38 c-8 -0.22 -13.20 -0.16 -14.12 0.16 -0.76 0.27 -1.84 1.30 -2.43 2.27 -0.97 1.62 -1.03 3.03 -1.19 20.01 -0.16 17.31 -0.22 18.23 -1.14 18.23 -0.59 0 -1.19 -0.43 -1.41 -0.92 -0.54 -1.24 -1.46 -48.62 -1.08 -52.90 0.38 -3.73 2.43 -7.95 4.65 -9.47 1.14 -0.81 3.35 -1.24 10.55 -1.89 21.15 -1.89 34.40 -5.35 43.81 -11.36 6.76 -4.33 15.47 -14.12 20.23 -22.66 1.24 -2.33 2.38 -4.06 2.54 -3.89 0.70 0.65 -0.59 5.41 -2.49 9.30 -2.22 4.65 -7.30 11.30 -11.30 14.87 -10.93 9.68 -28.29 15.20 -54.25 17.20 -6.98 0.54 -8.49 1.14 -9.90 4.11 -1.14 2.38 -1.08 7.09 0.11 9.47 1.51 3.03 3.52 3.84 11.30 4.38 8.65 0.54 17.52 0.59 18.39 0.05 0.49 -0.27 0.70 -2.87 0.81 -8.49 l0.16 -8.11 6.06 7.90 6.06 7.90 2.65 -0.43 c10.87 -1.68 23.31 -6.06 30.02 -10.55 2.38 -1.62 4.54 -2.92 4.81 -2.92 0.81 0 -1.68 4.06 -9.36 15.25 -7.25 10.60 -11.84 18.06 -11.84 19.20 0 1.14 10.87 15.31 11.74 15.31 1.57 0 10.22 -9.03 22.01 -22.99 1.51 -1.73 2.81 -2.87 2.92 -2.54 0.11 0.32 -2.54 4.92 -5.90 10.22 -6.92 10.98 -11.57 19.69 -12.12 22.55 -0.38 1.84 -0.11 2.33 4.27 8.17 3.08 4.06 5.03 6.22 5.68 6.22 0.59 0 2.43 -1.08 4.22 -2.38 5.52 -4.16 12.33 -12.44 23.74 -28.72 4 -5.79 7.57 -10.66 7.84 -10.87 1.68 -1.03 -0.76 3.89 -8.06 16.33 -10.33 17.58 -16.33 29.69 -17.36 35.21 -0.92 4.76 0.59 8.55 4.27 10.49 4.33 2.33 8.98 0.59 14.87 -5.57 7.73 -8 14.06 -17.52 30.50 -45.70 4.16 -7.14 6.06 -9.52 5.19 -6.49 -0.87 2.81 -7.63 16.23 -14.44 28.50 -14.17 25.64 -18.28 34.78 -18.28 40.94 0 4.16 1.30 6.54 4.38 8.17 3.14 1.68 7.84 1.41 12.12 -0.65z m-129.16 -24.18 c9.63 -2.06 15.85 -8 18.28 -17.52 0.97 -3.95 1.89 -12.12 1.89 -17.42 0 -2.11 0.27 -4.06 0.54 -4.22 0.32 -0.16 0.54 -0.27 0.59 -0.16 0 0.11 0.32 2 0.70 4.22 0.70 3.89 0.76 3.46 0.81 -9.79 0.05 -15.36 0.27 -14.55 -3.52 -14.55 -4.11 0 -8.06 3.19 -9.36 7.63 -0.81 2.65 -1.68 12.55 -1.68 19.31 0 16.88 -3.95 21.74 -17.47 21.74 -4.98 0 -10.22 -1.14 -12.28 -2.65 -2.06 -1.46 -3.62 -4.11 -4.38 -7.25 -0.43 -1.95 -0.76 -12.01 -0.97 -33.21 l-0.32 -30.45 -1.41 -1.35 c-0.76 -0.81 -2.33 -1.62 -3.52 -1.89 -1.19 -0.32 -8.87 -0.38 -17.63 -0.16 l-15.58 0.32 0 5.63 0 5.57 13.25 0 13.25 0 0.05 5.03 c0 2.70 0.22 15.20 0.49 27.69 0.49 24.34 0.76 26.77 3.52 32.24 2.76 5.41 6.81 8.60 13.52 10.49 6 1.73 15.04 2.06 21.20 0.76z m51.87 -61.60 c1.95 -0.81 2.97 -2 6.38 -7.14 4.06 -6 4.71 -7.46 3.46 -7.46 -0.32 0 -3.19 0.87 -6.38 1.84 -3.14 1.03 -8.28 2.49 -11.36 3.19 -3.08 0.70 -5.68 1.51 -5.79 1.78 -0.05 0.27 1.46 2.54 3.41 5.03 l3.57 4.49 2.22 -0.32 c1.24 -0.22 3.25 -0.81 4.49 -1.41z m118.40 -19.09 c2.70 -2.70 4.71 -10.98 6.44 -26.88 1.89 -17.42 2.65 -42.13 1.41 -46.62 -0.32 -1.08 -1.30 -2.60 -2.22 -3.35 l-1.68 -1.41 -16.66 0 -16.66 0 -0.38 3.95 c-0.22 2.11 -0.27 4.76 -0.16 5.79 l0.16 1.89 12.71 0.11 c6.98 0.05 13.03 0.11 13.41 0.11 1.95 0.11 -0.92 43 -3.46 51.60 -0.16 0.49 -0.54 0.92 -0.81 0.92 -0.70 0 -10.55 -8.55 -16.82 -14.55 l-4.76 -4.54 0 6.06 c0 4.65 0.16 6 0.70 6 0.43 0 1.73 0.70 2.92 1.57 2.33 1.68 3.95 4.87 3.95 7.73 0 1.19 0.54 2.27 1.73 3.52 1.57 1.62 2.06 1.78 4.81 1.78 1.73 0 3.79 0.27 4.65 0.59 2.06 0.76 4.38 3.03 5.63 5.52 1.30 2.54 2.70 2.60 5.08 0.22z m-206.23 -12.49 c9.14 -1.68 14.06 -4.27 17.36 -9.09 2.92 -4.27 3.73 -6.98 4 -13.74 l0.27 -6.06 6.33 -0.38 c27.21 -1.57 43.11 -5.52 47.38 -11.68 4.16 -5.95 2.92 -12.06 -2.92 -14.98 l-3.03 -1.46 -15.69 0 c-8.60 0 -27.26 0.22 -41.43 0.49 -18.77 0.38 -25.85 0.32 -26.12 -0.11 -0.54 -0.87 1.51 -1.08 18.88 -1.73 40.02 -1.46 62.31 -3.52 66.91 -6.06 5.79 -3.30 7.52 -12.12 3.52 -18.12 -2.06 -3.03 -5.03 -4.87 -8.76 -5.30 -1.51 -0.22 -10.49 0.38 -20.55 1.30 -29.04 2.70 -48.30 3.46 -66.26 2.76 l-6.76 -0.27 -0.65 2.70 c-0.38 1.51 -0.76 4.06 -0.81 5.68 l-0.16 2.97 8.65 0.49 c16.39 0.92 48.46 -0.81 77.61 -4.22 6.33 -0.76 8.11 -0.49 8.11 1.03 0 0.43 -0.43 1.03 -0.97 1.30 -2.60 1.35 -28.07 3.19 -65.72 4.71 -11.79 0.43 -22.99 0.97 -24.88 1.19 l-3.35 0.38 -0.16 10.60 -0.11 10.60 4.44 0.76 c5.35 0.92 33.37 1.03 65.55 0.27 17.69 -0.43 20.99 -0.38 20.77 0.22 -0.54 1.73 -11.14 3.30 -30.18 4.60 -14.50 0.92 -16.44 1.19 -18.50 2.22 -2.70 1.41 -3.14 3.14 -3.03 11.68 0.11 7.14 0.05 7.90 -1.08 10.06 -1.51 2.87 -3.57 4.16 -8.22 5.19 -4.38 1.03 -16.01 1.95 -23.91 1.95 l-5.84 0 0 5.73 0 5.79 12.33 -0.32 c7.79 -0.16 14.01 -0.59 16.98 -1.14z m196.06 -14.98 c1.62 -1.57 2.16 -4.81 2.81 -16.71 0.54 -10.33 0.32 -13.58 -1.24 -15.90 -1.68 -2.65 -2.76 -2.92 -12.06 -3.14 l-8.82 -0.27 0 4.22 0 4.16 4.22 0.38 c6.38 0.54 6.60 0.65 6.60 4.87 0 1.95 -0.22 3.52 -0.43 3.52 -0.22 0 -1.24 -0.87 -2.22 -1.95 -2.43 -2.54 -4 -3.14 -6.38 -2.33 -3.73 1.19 -4.71 5.79 -2.06 9.74 2.38 3.62 11.74 13.58 13.52 14.33 2 0.92 4.44 0.54 6.06 -0.92z m-210.83 0.59 c14.55 -1.51 20.88 -5.19 20.82 -12.17 -0.11 -5.41 -4.06 -10.11 -10.22 -12.17 -4.22 -1.41 -13.52 -3.03 -20.12 -3.52 l-5.03 -0.43 0 5.68 0 5.68 8.55 1.19 c4.65 0.59 9.19 1.35 10.06 1.57 1.89 0.54 2.43 1.51 1.03 1.95 -1.62 0.49 -11.95 1.41 -15.90 1.41 l-3.73 0 0 5.68 0 5.68 4.54 0 c2.49 0 6.98 -0.27 10.01 -0.54z m57.87 -0.81 c10.49 -1.57 32.07 -5.84 36.02 -7.14 9.25 -2.97 15.04 -13.09 16.50 -28.77 2 -22.01 -5.95 -43.49 -18.17 -49.11 -6.22 -2.81 -12.39 -2.87 -45.65 -0.38 -10.87 0.81 -42.40 1.73 -45.81 1.35 -1.03 -0.11 -1.78 -0.49 -1.78 -0.87 0 -0.92 1.68 -1.08 26.50 -2.70 30.72 -2.06 44.30 -3.62 49.06 -5.68 4.49 -1.95 6 -7.84 3.03 -11.41 -2.92 -3.46 -12.39 -6.87 -23.42 -8.33 -16.77 -2.27 -32.51 0.54 -43.11 7.73 -6 4.06 -7.03 3.84 15.69 3.52 19.42 -0.32 22.82 -0.16 21.69 0.92 -0.27 0.22 -10.22 1.08 -22.12 1.84 -11.90 0.81 -22.45 1.57 -23.42 1.73 -2.92 0.49 -8.55 9.14 -12.06 18.71 -0.87 2.43 -1.41 4.60 -1.19 4.81 0.27 0.27 4.81 0.70 10.22 1.08 11.25 0.70 26.12 0.22 56.47 -1.95 27.58 -2 29.37 -1.89 33.75 1.95 2.81 2.49 5.25 7.52 7.14 14.87 1.89 7.14 2.38 18.88 1.08 25.64 -1.03 5.68 -4.06 12.12 -6.33 13.47 -2.76 1.68 -29.04 6.81 -43.16 8.38 -7.90 0.92 -8.76 1.30 -9.79 4.44 -0.81 2.43 -0.22 4.81 1.46 6.17 1.89 1.46 6.06 1.41 17.42 -0.27z m-148.95 -19.74 c1.30 0 0.97 -2.97 -0.54 -4.76 -0.76 -0.92 -1.35 -1.89 -1.35 -2.27 0 -0.38 1.30 -2.06 2.87 -3.79 5.14 -5.52 9.57 -11.90 12.55 -18.06 4.54 -9.36 6.22 -17.15 6.22 -29.15 0 -9.19 1.62 -5.95 2.70 5.46 1.30 13.90 -1.41 22.23 -11.68 35.59 -6.44 8.33 -6.92 9.41 -6.76 14.44 l0.05 2 3.68 0 c6.33 -0.05 17.20 -1.73 21.36 -3.35 1.68 -0.65 8.06 -8.33 12.01 -14.50 8.71 -13.41 11.14 -30.88 6.71 -48.35 -0.59 -2.33 -0.97 -4.49 -0.87 -4.81 0.32 -0.97 2.43 2.54 4.22 6.92 2.27 5.73 3.19 10.44 3.19 16.82 0 9.30 -2.60 17.36 -9.52 29.48 -3.08 5.46 -4.22 9.14 -2.81 9.14 0.43 0 2.60 -1.19 4.87 -2.70 14.71 -9.63 20.88 -26.88 16.82 -47.06 -2.60 -13.14 -11.30 -24.50 -22.99 -30.02 -3.95 -1.89 -11.36 -4.06 -13.79 -4.06 l-1.24 0 1.30 3.35 c0.70 1.89 2.43 5.95 3.84 9.09 5.35 11.95 7.46 20.72 7.46 31.37 -0.05 10.71 -2 18.06 -6.87 25.31 -2.54 3.79 -6.27 7.79 -6.27 6.71 0 -0.32 1.24 -2.76 2.70 -5.35 5.90 -10.28 7.52 -20.23 5.68 -34.40 -1.46 -11.20 -4.65 -20.93 -10.93 -33.48 l-1.78 -3.68 -7.30 0 c-3.95 0 -7.36 0.16 -7.46 0.43 -0.16 0.22 0.32 5.35 1.03 11.47 1.14 9.41 1.30 12.93 1.14 23.26 -0.16 10.44 -0.38 12.82 -1.41 16.50 -2.65 9.79 -8.92 19.47 -18.34 28.45 -5.52 5.25 -6.38 7.14 -4.60 9.63 0.59 0.76 4.22 3.41 8.06 5.84 l6.98 4.44 0.16 -2.92 c0.11 -2.16 0.38 -2.97 0.92 -2.97z m460.87 1.35 c7.90 -5.08 8.33 -5.46 8.33 -7.41 0 -2.43 -0.76 -3.46 -7.25 -10.17 -11.63 -11.95 -15.85 -20.07 -17.69 -33.80 -0.87 -6.54 -0.32 -23.69 1.14 -34.07 0.59 -4.44 1.08 -8.55 1.08 -9.03 0 -0.87 -0.70 -0.97 -7.46 -0.97 l-7.52 0 -4.06 8.55 c-6 12.44 -8.11 19.96 -9.03 32.29 -0.97 12.60 0.76 21.04 6.17 30.78 1.62 2.97 2.87 5.52 2.70 5.68 -0.76 0.70 -6.54 -6.54 -8.87 -11.14 -3.73 -7.46 -5.41 -17.47 -4.38 -26.83 1.03 -9.63 3.08 -16.33 8.87 -29.21 1.95 -4.38 3.57 -8.22 3.57 -8.49 0 -1.46 -9.30 0.76 -15.04 3.57 -15.47 7.57 -23.91 22.34 -23.91 41.81 0.05 12.66 3.57 21.91 11.47 29.86 3.14 3.14 10.11 8.06 11.47 8.06 1.24 0 -0.43 -4.81 -3.35 -9.95 -6.87 -11.90 -8.87 -18.23 -8.92 -28.45 -0.05 -5.19 0.22 -7.84 1.14 -11.47 1.14 -4.65 4.71 -12.87 5.63 -12.87 0.54 0 0.59 -0.49 -0.65 5.14 -3.14 14.44 -2.11 29.80 2.65 40.40 2.97 6.65 12.01 19.69 15.20 21.91 2.33 1.62 15.85 3.95 23.04 3.95 l3.46 0 0 -2.81 c-0.05 -3.84 -1.14 -6 -6.92 -13.68 -6.27 -8.22 -9.19 -13.36 -10.82 -18.88 -1.19 -4 -1.24 -5.08 -1.03 -13.03 0.22 -8.44 1.14 -14.87 2.06 -14.87 0.27 0 0.49 2.76 0.49 6.11 0 13.68 3.30 25.47 9.90 35.26 2.87 4.22 7.36 9.84 9.57 11.90 2.87 2.70 2.97 3.30 1.14 5.46 -1.95 2.16 -2.16 4.22 -0.59 5.08 0.87 0.49 1.08 1.14 1.08 3.30 0 1.51 0.22 2.60 0.43 2.43 0.22 -0.16 3.35 -2.11 6.92 -4.38z m-594.19 -7.79 c0 -0.70 -3.68 -7.14 -4.71 -8.28 -1.30 -1.46 -4.76 -1.30 -6.33 0.27 -2.22 2.22 -2.49 7.57 -0.43 8.11 1.78 0.49 11.47 0.38 11.47 -0.11z m15.36 0.05 c0.16 -0.27 -2.11 -5.19 -4.98 -10.98 -6 -11.90 -8.92 -19.96 -7.25 -19.96 0.22 0 1.89 2.60 3.73 5.84 1.84 3.19 5.30 9.25 7.68 13.52 2.43 4.22 4.98 8.71 5.73 9.84 l1.35 2.16 6.22 0 c3.73 0 6.22 -0.22 6.22 -0.54 0 -0.27 -1.03 -2.16 -2.33 -4.16 -1.30 -2.06 -5.35 -9.03 -9.03 -15.58 -11.25 -20.17 -14.82 -25.37 -19.31 -28.34 -6.33 -4.22 -12.87 -0.49 -13.52 7.73 -0.70 8.44 5.46 26.61 13.03 38.62 l1.41 2.27 5.41 0 c2.92 0 5.46 -0.22 5.63 -0.43z m684.14 -3.19 c1.30 -2.06 4.76 -7.95 7.68 -13.14 6.22 -11.14 8.87 -15.36 9.30 -14.93 0.97 0.97 -4.11 13.63 -9.90 24.56 -2.60 4.87 -3.30 6.71 -2.76 6.92 0.38 0.11 3.14 0.16 6.11 0.11 l5.35 -0.16 4.60 -9.19 c6.44 -12.82 9.19 -21.74 9.19 -29.91 -0.05 -7.14 -2.76 -10.93 -8 -10.93 -6.33 0 -11.52 5.95 -22.01 25.15 -4.71 8.65 -11.14 19.63 -13.20 22.72 -0.65 0.92 -1.14 1.78 -1.14 2.06 0 0.22 2.81 0.38 6.22 0.38 l6.22 0 2.33 -3.62z m32.02 0 c0 -4.16 -1.46 -6.11 -4.60 -6.11 -2.54 0 -3.35 0.65 -5.63 4.76 -2.87 5.14 -2.97 5.03 4.16 4.87 l6.06 -0.16 0 -3.35z m-747.75 -0.97 c0.49 -1.78 1.89 -5.25 3.14 -7.73 3.03 -6.11 3.25 -8 1.51 -13.68 -2.06 -6.76 -2.76 -12.82 -1.95 -16.88 0.76 -3.95 1.14 -4.71 3.57 -7.36 l1.84 -2.06 -1.08 -4 c-0.54 -2.22 -1.51 -5.46 -2.16 -7.19 -2 -5.90 -1.46 -5.63 6.11 2.70 4 4.38 6.98 7.19 8.49 7.90 5.25 2.60 10.93 10.11 20.01 26.39 2.76 4.92 6.60 11.74 8.55 15.09 3.19 5.52 3.62 6.06 3.79 4.65 0.76 -6.49 -4.33 -22.28 -10.66 -33.16 -8.92 -15.25 -35.10 -44.13 -43.05 -47.49 -2.43 -0.97 -6.92 -0.59 -10.49 0.92 l-2.38 1.03 0.32 2.87 c0.16 1.84 1.46 5.41 3.57 10.11 6.65 14.93 9.03 24.77 8.55 35.53 -0.32 6.76 -1.14 9.63 -1.68 5.57 -0.16 -1.35 -0.43 -4.49 -0.59 -7.03 -0.65 -9.19 -4.16 -21.85 -8.22 -29.21 -4.06 -7.41 -7.14 -10.01 -11.47 -9.63 -3.08 0.32 -4.98 1.57 -6.54 4.38 -1.73 3.03 -1.84 7.14 -0.59 16.88 1.84 13.85 2.16 28.40 0.65 28.40 -0.22 0 -0.81 -3.30 -1.35 -7.30 -1.08 -8.38 -3.08 -17.25 -4.65 -20.23 -1.57 -3.14 -5.46 -4.11 -6.17 -1.51 -0.16 0.65 -0.59 3.84 -0.92 7.03 -0.65 6.49 -0.05 14.82 1.46 19.96 1.51 4.98 5.14 11.30 8.38 14.50 3.89 3.84 8.82 7.25 9.90 6.87 1.03 -0.38 3.30 -7.63 4.44 -13.79 0.92 -5.19 1.14 -17.79 0.49 -26.18 -0.43 -6 0.22 -7.09 1.57 -2.54 3.19 10.60 2.92 23.74 -0.81 39.16 -1.41 5.90 -1.35 6.11 0.97 7.14 3.08 1.24 12.60 3.35 14.77 3.25 1.78 -0.11 1.89 -0.22 2.70 -3.35z m761.54 2.22 c5.19 -1.19 9.74 -2.70 9.74 -3.25 0 -0.11 -0.59 -2.76 -1.30 -5.84 -2.49 -10.60 -3.19 -16.77 -2.87 -25.58 0.16 -4.44 0.54 -8.98 0.87 -10.01 0.27 -1.03 0.81 -2.92 1.14 -4.16 0.32 -1.30 0.76 -2.33 1.03 -2.33 0.22 0 0.27 5.46 0.16 12.12 -0.27 12.28 0.16 17.69 1.84 24.34 1.35 5.30 2.92 8.98 3.84 8.98 1.30 0 7.30 -4.49 10.28 -7.73 5.73 -6.27 8.71 -14.44 9.19 -25.26 0.32 -7.09 -0.43 -15.25 -1.57 -16.60 -0.81 -0.97 -2.97 -0.49 -4.65 1.08 -2.16 2 -4.22 10.44 -6.33 25.96 -0.16 1.41 -0.54 2.54 -0.81 2.54 -1.46 0 -1.24 -9.52 0.59 -26.23 1.30 -11.20 1.19 -15.36 -0.38 -18.39 -2.11 -4.06 -6.71 -5.73 -10.44 -3.84 -4.81 2.49 -10.49 12.76 -13.31 24.12 -1.46 5.79 -2.97 16.01 -2.97 20.01 0 1.51 -0.22 2.70 -0.49 2.70 -0.81 0 -1.14 -3.08 -1.14 -10.22 0 -10.60 1.68 -17.09 8.11 -31.97 1.95 -4.44 3.52 -8.92 3.68 -10.33 0.22 -2.16 0.05 -2.60 -1.19 -3.62 -1.89 -1.46 -8.06 -2.49 -10.55 -1.78 -2.76 0.87 -6.87 4.27 -15.31 12.93 -12.44 12.82 -24.01 27.10 -29.21 36.18 -4.76 8.17 -8.33 18.28 -9.63 27.21 -1.30 8.82 -1.08 8.60 11.09 -13.25 10.33 -18.55 15.41 -25.37 21.04 -28.23 1.46 -0.76 3.25 -2.11 4 -3.03 2.16 -2.65 11.09 -11.74 11.52 -11.74 0.22 0 -0.43 2.54 -1.46 5.63 -0.97 3.08 -1.95 6.60 -2.16 7.79 -0.32 2 -0.16 2.38 1.57 4.16 2.70 2.76 3.35 5.03 3.35 11.36 -0.05 4.27 -0.38 6.60 -1.62 11.09 -0.87 3.14 -1.57 6.65 -1.51 7.79 0.05 1.41 1.03 4.06 2.81 7.57 1.46 3.03 2.97 6.76 3.30 8.33 0.59 2.65 0.70 2.81 2.33 2.81 0.97 0 4.27 -0.59 7.41 -1.30z m-631.84 -3.84 c4.44 -2.43 10.22 -7.57 13.79 -12.39 9.25 -12.44 13.25 -30.18 11.14 -49.44 -0.70 -6.54 -1.84 -12.33 -3.25 -16.77 l-1.14 -3.35 -9.36 0 c-8.49 0 -9.41 0.11 -9.68 0.97 -0.16 0.49 -0.92 7.03 -1.68 14.44 -1.73 17.15 -2.76 24.88 -3.79 27.91 -0.70 2.22 -0.76 1.68 -0.38 -7.09 0.49 -12.17 0.49 -34.07 0 -35.32 -0.38 -0.81 -1.46 -0.92 -12.28 -0.92 -11.79 0 -11.84 0 -12.17 1.19 -0.22 0.70 -0.65 7.68 -0.92 15.58 -0.27 7.84 -0.59 14.39 -0.70 14.44 -0.11 0.11 -1.46 -3.52 -3.03 -8 -2.92 -8.38 -6.38 -16.12 -9.30 -20.61 l-1.62 -2.60 -7.79 0 -7.79 0 3.46 3.41 c5.95 6 12.12 20.17 19.53 45.05 3.95 13.14 5.35 15.96 9.03 17.85 2.54 1.30 6.11 0.59 7.90 -1.51 0.38 -0.49 0.70 -5.46 0.87 -14.22 0.54 -23.15 1.35 -45.38 1.78 -47.22 0.49 -2.06 1.35 -2.33 1.89 -0.54 0.65 2.33 0.43 22.77 -0.38 34.51 -0.92 13.85 -1.03 22.77 -0.22 25.58 0.32 1.19 1.41 2.97 2.38 4.06 1.68 1.89 2 2 5.03 2 2.76 0 3.62 -0.27 5.63 -1.62 1.24 -0.92 3.35 -3.19 4.60 -5.03 4.11 -6.11 6.06 -14.33 8.55 -36.67 0.76 -6.76 1.46 -12.44 1.62 -12.55 0.59 -0.65 0.97 0.65 1.68 5.95 2.60 19.74 -1.73 37.54 -11.68 47.97 -5.73 6 -7.52 6.33 -23.09 4.11 -13.79 -1.95 -12.33 -1.41 -13.36 -5.41 -1.08 -4.44 -5.84 -19.96 -8.22 -27.21 -5.46 -16.33 -13.68 -29.53 -22.55 -36.24 l-3.08 -2.27 -9.25 0.11 -9.25 0.16 5.57 3.79 c6.76 4.49 15.14 12.60 18.50 17.85 6.38 10.01 12.06 24.99 17.15 45.16 1.89 7.52 2.97 10.82 3.73 11.41 0.65 0.54 3.68 1.14 8.82 1.78 4.22 0.49 10.66 1.51 14.22 2.22 9.03 1.78 15.14 1.62 19.09 -0.54z m510.85 0.54 c4.06 -0.70 10.28 -1.73 13.79 -2.16 3.46 -0.49 7.25 -1.14 8.33 -1.41 2.33 -0.59 2.16 -0.22 5.30 -13.47 1.89 -8.11 6.60 -22.66 9.63 -29.75 6.11 -14.28 13.09 -22.93 25.58 -31.69 2.33 -1.68 4.38 -3.25 4.54 -3.52 0.22 -0.27 -3.35 -0.49 -8.82 -0.49 l-9.14 0 -3.19 2.76 c-6.92 6.06 -11.52 12.28 -16.44 22.39 -3.84 7.84 -5.95 13.79 -10.87 30.78 -2.06 7.14 -3.84 13.03 -4 13.20 -0.43 0.43 -17.31 2.87 -22.28 3.19 -4.33 0.27 -5.25 0.16 -7.30 -0.81 -7.46 -3.62 -14.87 -16.39 -17.25 -29.86 -1.41 -7.90 -0.59 -27.85 1.19 -28.99 0.27 -0.16 0.49 0.11 0.49 0.54 0 2.22 2.87 24.61 3.79 29.86 1.62 8.76 2.49 11.90 4.60 16.17 3.95 8.06 10.28 11.79 15.41 9.03 3.35 -1.84 4.06 -4.06 4.22 -13.79 0.11 -4.65 -0.22 -13.63 -0.65 -19.85 -0.87 -11.41 -1.08 -29.42 -0.38 -31.86 0.54 -2 1.51 -1.95 1.89 0.05 0.65 3.46 1.35 20.39 1.73 40.62 l0.38 20.44 1.89 1.62 c1.68 1.46 2.22 1.68 4.27 1.41 2.87 -0.32 5.08 -2.16 6.92 -5.79 0.65 -1.35 2.97 -8 5.14 -14.87 7.79 -24.93 13.31 -37.43 19.09 -43.11 l3.19 -3.14 -7.90 0 -7.84 0 -2.22 3.73 c-3.03 5.03 -6.49 13.09 -8.92 20.61 -1.08 3.41 -2.16 6.54 -2.38 6.92 -0.27 0.43 -0.59 -5.30 -0.81 -12.66 -0.16 -7.41 -0.54 -14.55 -0.76 -15.90 l-0.38 -2.43 -11.84 -0.16 c-7.79 -0.05 -12.06 0.05 -12.44 0.43 -0.92 0.92 -1.03 18.17 -0.11 31.64 0.76 12.06 0.49 16.39 -0.70 10.49 -1.08 -5.46 -1.68 -9.95 -3.25 -25.80 -0.92 -8.71 -1.78 -16.06 -1.95 -16.33 -0.22 -0.32 -4.06 -0.54 -9.52 -0.54 l-9.19 0 -1.03 2.27 c-1.51 3.41 -3.19 12.49 -3.79 20.23 -0.59 7.46 0 17.74 1.41 24.56 2.65 12.87 10.33 25.26 20.17 32.45 6.44 4.76 9.95 5.19 22.39 2.97z m-165.13 -54.63 c15.31 -2.70 27.58 -7.30 33.48 -12.55 2.81 -2.49 2.70 -2.97 -1.57 -6.81 -3.46 -3.14 -7.30 -5.03 -12.33 -6.06 -3.46 -0.76 -4.98 -0.76 -13.95 0 -5.52 0.43 -13.79 0.81 -18.44 0.81 l-8.33 0 -3.62 2.38 c-2 1.30 -4.71 3.46 -6 4.81 -2.33 2.43 -2.33 2.49 -1.08 2.76 3.35 0.70 8.82 1.03 20.77 1.35 7.68 0.16 12.98 0.54 12.98 0.87 0 1.24 -5.08 1.62 -21.20 1.62 l-16.88 -0.05 -1.84 4.11 c-3.14 6.87 -3.41 6.27 2.70 6.98 2.92 0.32 6.27 0.70 7.46 0.81 4.98 0.49 22.93 -0.16 27.85 -1.03z m1.08 -27.31 c5.08 -0.38 5.03 -0.38 -2.70 -0.38 -4.33 -0.05 -8.44 0.16 -9.19 0.38 -1.73 0.54 4.81 0.59 11.90 0z"/>
 </g>
 <g fill="none" stroke="#ffffff" stroke-width="0.541">
  <path d="M172.27 319.06 c-4.22 -0.59 -7.73 -1.95 -8.38 -3.19 -1.24 -2.27 0.27 -7.09 2.43 -7.90 0.43 -0.22 0.81 -0.54 0.81 -0.76 0 -0.27 -4.54 -3.52 -10.11 -7.19 -5.63 -3.68 -11.41 -7.95 -12.93 -9.41 -3.46 -3.30 -4 -5.41 -4 -15.31 0 -6.71 0.05 -7.03 1.24 -7.68 0.65 -0.38 2.60 -0.65 4.27 -0.65 4.81 0.05 7.52 1.51 40.02 21.47 7.25 4.44 17.63 10.11 18.55 10.11 0.65 0 0.22 -1.30 -0.65 -1.95 -2.70 -2.11 -15.74 -10.55 -25.04 -16.17 -20.99 -12.76 -35.37 -22.12 -37.48 -24.45 -0.87 -0.97 -0.92 -2.16 -0.81 -11.84 l0.16 -10.76 1.68 -0.16 c6.11 -0.59 19.63 6.17 42.84 21.36 17.90 11.68 36.02 22.34 36.78 21.53 1.41 -1.41 -10.76 -9.47 -49.65 -32.88 -17.74 -10.71 -24.28 -14.93 -29.04 -18.71 l-2.87 -2.22 0 -10.01 0 -10.01 1.41 -0.32 c2.06 -0.54 9.36 1.57 15.36 4.44 7.95 3.79 15.47 8.11 35.86 20.61 21.80 13.41 25.58 15.58 26.02 14.82 0.87 -1.41 -14.33 -11.41 -52.14 -34.40 -11.03 -6.71 -19.58 -12.39 -23.31 -15.52 l-3.19 -2.65 0 -7.19 c0 -6.54 0.11 -7.30 1.14 -8.17 1.57 -1.46 6 -1.24 11.74 0.59 6.87 2.22 30.67 14.39 46.89 24.01 18.55 10.93 23.53 13.47 23.53 12.01 0 -0.97 -11.63 -8.71 -23.26 -15.52 -7.52 -4.38 -20.28 -11.20 -34.94 -18.61 -15.79 -8 -21.26 -12.49 -23.96 -19.74 -1.57 -4.22 -1.57 -12.76 -0.05 -17.74 3.03 -9.79 11.25 -16.93 19.36 -16.82 4.38 0.05 7.30 1.89 9.25 5.73 l1.30 2.60 -1.14 2.27 c-1.73 3.57 -1.84 4.49 -1.46 9.74 l0.38 4.98 2.33 2.22 c3.19 2.92 15.25 9.74 31.15 17.47 13.25 6.44 19.69 9.14 20.34 8.55 0.70 -0.70 -2.65 -2.70 -15.25 -9.09 -29.42 -14.98 -35.10 -18.98 -35.81 -25.58 -0.65 -5.41 1.73 -9.36 6.33 -10.60 4.54 -1.24 14.22 1.73 30.83 9.47 10.55 4.98 10.71 3.52 0.27 -2.70 -11.03 -6.54 -24.45 -11.09 -32.72 -11.09 -2.87 0 -3.08 -0.11 -5.35 -2.49 -1.24 -1.35 -3.35 -2.92 -4.54 -3.52 -2.60 -1.14 -8.06 -1.35 -11.41 -0.43 -1.14 0.32 -2.27 0.38 -2.54 0.11 -0.22 -0.22 -0.70 -2.60 -1.03 -5.30 -2.38 -18.23 -8.49 -35.97 -16.66 -48.41 -3.35 -5.08 -11.84 -13.90 -16.01 -16.66 -4.76 -3.08 -4.49 -2.11 1.19 4.87 11.63 14.22 17.74 25.15 22.01 39.10 2.70 8.92 3.68 14.44 3.68 21.09 0.05 6.92 -0.81 10.49 -3.52 14.60 l-1.78 2.70 -0.27 -5.95 -0.27 -5.95 -2.70 -0.27 -2.65 -0.27 -0.16 -5.30 c-0.38 -13.14 -5.35 -27.42 -14.06 -40.67 -1.78 -2.65 -5.79 -8.06 -8.92 -12.01 -9.52 -11.84 -11.20 -14.77 -11.25 -19.42 0 -7.90 8.06 -10.98 17.31 -6.60 10.49 4.98 23.20 17.42 30.13 29.53 6 10.55 12.93 32.40 14.50 45.65 0.43 3.52 0.65 3.68 6.22 3.68 4.06 0 13.09 1.19 18.88 2.43 12.44 2.65 29.04 10.44 38.35 17.96 l2.27 1.84 0 11.36 c0 10.93 -0.05 11.30 -1.08 11.30 -1.57 0 -6.76 -2.06 -17.31 -6.92 -8.38 -3.84 -17.42 -7.68 -18.12 -7.68 -0.16 0 -0.27 0.32 -0.27 0.70 0 0.97 7.09 4.87 21.36 11.79 6.27 3.03 12.28 6.11 13.41 6.81 l2 1.24 0 12.22 0 12.22 -2 -0.38 c-4.16 -0.76 -13.95 -5.08 -32.34 -14.33 -26.34 -13.25 -31.10 -16.23 -34.18 -21.47 -1.89 -3.25 -2.27 -8.82 -0.97 -14.12 1.24 -5.19 1.08 -5.84 -1.24 -4.44 -1.19 0.76 -2.33 2.22 -3.35 4.49 -1.35 2.81 -1.62 4 -1.62 7.57 0 4.71 0.70 6.92 3.35 10.22 2.38 3.08 4.81 4.49 26.77 15.90 22.01 11.47 29.42 15.58 37.48 20.93 9.03 6 8.11 3.84 8.11 18.88 0 8.44 -0.22 12.87 -0.54 12.87 -1.62 0 -16.71 -8 -30.02 -16.01 -15.63 -9.30 -31.37 -18.06 -32.56 -18.06 -2.38 0 1.19 2.54 15.79 11.36 23.42 14.17 38.46 23.85 44.51 28.61 l2.81 2.22 0 12.17 c0 11.90 0 12.17 -1.08 12.17 -2.16 0 -17.96 -8.65 -40.56 -22.28 -22.93 -13.79 -30.40 -17.96 -31.48 -17.63 -1.73 0.59 7.03 6.33 35.64 23.47 25.15 15.09 32.56 19.80 35.53 22.61 2.27 2.11 2.33 2.70 1.35 13.58 -0.54 6.49 -1.24 10.28 -2 10.71 -0.76 0.49 -6.44 -1.30 -10.93 -3.46 -5.63 -2.65 -10.87 -5.68 -21.09 -12.17 -29.96 -18.93 -34.29 -21.58 -39.75 -24.34 -2.16 -1.14 -4.16 -1.89 -4.44 -1.62 -0.92 0.92 8.22 7.46 24.45 17.47 3.89 2.43 12.66 7.84 19.47 12.06 17.69 10.98 23.58 15.47 26.99 20.55 1.03 1.57 1.14 3.89 0.22 5.57 -1.35 2.60 -5.46 7.46 -6.92 8.22 -2 1.03 -3.14 1.03 -7.52 -0.05 -6.71 -1.62 -14.39 -5.68 -34.67 -18.34 -12.49 -7.79 -17.79 -10.82 -18.23 -10.33 -0.70 0.70 2.27 2.97 14.44 11.03 23.15 15.25 26.39 17.58 28.18 20.44 0.65 1.14 1.03 2.49 0.92 3.57 -0.11 1.46 -0.43 1.84 -1.78 2.11 -2.38 0.54 -18.39 0.43 -22.18 -0.11z"/>
  <path d="M346.15 319.11 c-6.44 -0.70 -15.41 -3.14 -18.93 -5.14 -1.84 -1.08 -1.35 -1.03 4.44 0.54 7.79 2.06 14.50 2.97 23.96 3.35 6 0.27 8.06 0.49 6.76 0.76 -3.19 0.70 -11.95 0.97 -16.23 0.49z"/>
  <path d="M714.92 319.27 c-1.03 -0.16 -1.62 -0.65 -1.84 -1.57 -0.97 -3.73 1.89 -6.71 14.17 -14.71 5.03 -3.30 12.98 -8.49 17.69 -11.57 8.22 -5.35 12.33 -8.71 11.57 -9.41 -0.32 -0.32 -4.38 2.06 -26.34 15.47 -16.50 10.11 -27.26 14.77 -32.13 13.85 -3.46 -0.65 -10.11 -9.36 -9.36 -12.28 0.59 -2.27 3.41 -5.68 7.46 -9.03 4 -3.30 5.95 -4.60 28.07 -18.23 25.15 -15.52 36.78 -23.31 36.78 -24.66 0 -2 -7.52 2.16 -31.15 17.25 -20.55 13.03 -29.48 18.39 -34.67 20.77 -4.81 2.16 -10.55 3.79 -11.14 3.19 -0.92 -0.92 -1.46 -5.08 -1.84 -13.74 l-0.32 -8.55 1.57 -1.62 c2.49 -2.65 11.79 -8.55 38.08 -24.28 13.52 -8.11 26.56 -16.12 28.88 -17.79 4.44 -3.14 5.90 -4.81 3.52 -4.11 -2.27 0.70 -13.36 6.98 -25.91 14.66 -26.34 16.06 -42.46 25.10 -44.89 25.10 -1.03 0 -1.08 -0.38 -1.19 -6.60 -0.11 -9.36 0.05 -17.74 0.38 -18.34 0.81 -1.24 16.50 -11.63 31.53 -20.82 15.96 -9.79 30.18 -18.71 30.88 -19.42 0.43 -0.43 0.65 -0.97 0.43 -1.19 -0.70 -0.65 -11.09 4.98 -28.77 15.52 -15.90 9.52 -32.07 18.39 -33.59 18.39 -0.70 0 -1.24 -13.90 -0.81 -21.47 0.38 -5.68 -0.27 -4.81 7.63 -10.11 7.52 -5.03 18.61 -11.20 38.13 -21.26 20.66 -10.66 22.72 -11.90 25.58 -14.98 3.19 -3.46 4.06 -5.79 4.11 -10.87 0 -5.19 -1.46 -9.09 -4.38 -11.68 -2.70 -2.38 -3.35 -1.46 -2 2.87 1.51 5.03 1.35 10.76 -0.43 14.22 -2.43 4.76 -6.71 8 -18.28 14.17 -22.93 12.17 -48.84 24.01 -49.98 22.82 -0.11 -0.11 -0.32 -5.52 -0.49 -12.01 -0.22 -10.33 -0.11 -11.90 0.65 -12.66 0.49 -0.49 7.68 -4.22 16.01 -8.33 15.69 -7.79 20.28 -10.33 20.28 -11.36 0 -0.97 -2.27 -0.16 -12.71 4.49 -15.52 6.98 -21.91 9.63 -22.99 9.63 -0.92 0 -0.97 -0.65 -1.19 -8.11 -0.05 -4.44 -0.05 -9.74 0.11 -11.74 l0.27 -3.62 5.35 -3.68 c6.38 -4.38 20.01 -11.20 26.02 -13.03 7.57 -2.33 17.69 -4.11 28.99 -4.98 l4.06 -0.32 0.70 -4.16 c2.27 -14.12 7.14 -29.69 12.55 -40.62 4.27 -8.60 8.76 -14.77 15.41 -21.15 8.71 -8.38 15.74 -12.87 21.85 -14.12 9.09 -1.78 14.55 5.46 10.55 14.01 -1.68 3.68 -3.25 5.90 -10.28 14.71 -12.28 15.31 -17.09 24.39 -20.61 38.67 -0.87 3.41 -1.46 7.84 -1.68 12.06 l-0.32 6.60 -2.54 0 c-3.19 0 -3.35 0.32 -3.19 6.65 0.05 2.60 -0.05 4.87 -0.16 5.03 -0.16 0.11 -1.03 -0.92 -1.95 -2.33 -5.08 -7.90 -4.38 -22.28 1.84 -40.29 3.89 -11.20 8.92 -19.74 19.31 -32.83 7.36 -9.14 7.57 -10.17 1.41 -5.68 -4.76 3.46 -11.79 10.82 -15.14 15.79 -3.52 5.25 -7.95 14.55 -10.17 21.09 -2.49 7.57 -5.35 19.69 -6.06 26.07 -0.32 3.14 -0.92 6 -1.30 6.44 -0.59 0.59 -1.19 0.59 -3.52 0.05 -6 -1.46 -11.63 0.22 -15.58 4.54 -1.62 1.84 -1.95 1.95 -5.03 1.95 -7.03 0 -16.98 3.08 -27.58 8.44 -7.46 3.79 -12.39 7.03 -12.39 8.06 0 0.97 -0.70 1.19 10.55 -3.95 14.87 -6.81 23.37 -9.30 27.91 -8.22 5.95 1.46 8.44 7.95 5.35 14.06 -2.54 4.92 -11.41 10.49 -37.37 23.42 -9.14 4.60 -14.28 7.90 -12.28 7.95 2.65 0.05 32.29 -14.22 43.81 -21.09 3.19 -1.89 6.71 -4.38 7.84 -5.52 l2.06 -2.11 0.16 -5.35 c0.16 -4.81 0.05 -5.68 -1.14 -8.28 -1.30 -2.92 -1.35 -2.97 -0.38 -5.03 1.08 -2.49 3.41 -4.76 5.57 -5.57 4.16 -1.62 10.49 -0.16 15.25 3.52 2.60 1.95 7.14 8.87 8.06 12.28 1.89 6.71 1.51 15.36 -0.81 20.01 -1.62 3.08 -6.54 8.11 -10.76 10.93 -1.95 1.24 -8.44 4.76 -14.39 7.73 -23.80 11.90 -51.76 28.23 -55.60 32.51 -0.92 1.03 -0.92 1.14 -0.11 1.14 1.41 0 7.52 -3.25 22.12 -11.84 22.61 -13.31 34.89 -19.69 45.54 -23.74 8.38 -3.19 13.79 -3.30 14.87 -0.32 0.59 1.51 0.76 12.60 0.22 13.95 -0.76 1.95 -11.30 9.03 -36.45 24.39 -25.69 15.74 -42.19 26.77 -42.19 28.23 0 1.35 4.76 -1.41 32.45 -18.55 21.15 -13.03 30.99 -18.12 39.70 -20.39 6.81 -1.73 6.54 -2.11 6.54 9.84 l0 9.84 -1.35 1.08 c-3.95 3.14 -12.12 8.55 -20.28 13.47 -39.81 24.07 -60.31 37.10 -60.31 38.46 0 2.22 7.19 -1.73 33.59 -18.50 22.01 -14.01 31.42 -19.53 36.83 -21.58 4.87 -1.89 10.55 -2.70 11.25 -1.62 0.54 0.87 0.16 20.93 -0.43 21.96 -0.87 1.57 -9.84 7.52 -29.48 19.69 -20.72 12.82 -32.88 20.66 -33.97 21.96 -1.19 1.46 -0.05 1.41 3.14 -0.05 4.38 -2 9.57 -5.03 26.66 -15.58 18.61 -11.52 24.66 -14.55 29.15 -14.66 4.98 -0.11 5.19 0.32 5.08 8.71 -0.11 10.38 -0.32 11.20 -3.57 14.50 -3.03 2.97 -11.84 9.36 -18.82 13.63 -2.33 1.41 -4.27 2.81 -4.27 3.08 0 0.22 0.76 1.30 1.68 2.33 1.41 1.62 1.62 2.27 1.46 4.33 -0.22 3.25 -1.62 4.33 -7.25 5.30 -4 0.70 -19.80 0.97 -23.58 0.43z"/>
  <path d="M347.78 314.73 c-9.63 -1.14 -23.53 -4.65 -28.72 -7.30 -2.81 -1.41 -5.35 -4.54 -7.90 -9.68 -2.06 -4.11 -3.62 -8.33 -3.30 -8.65 0.16 -0.16 1.95 0.70 4 1.95 8.22 5.03 19.31 9.25 29.69 11.30 11.63 2.33 28.13 2.11 40.51 -0.59 2.65 -0.54 4.92 -0.92 5.03 -0.87 0.43 0.49 -4.27 6.87 -6.71 9.14 -5.19 4.81 -5.95 5.03 -18.01 5.14 -5.79 0 -12.39 -0.16 -14.60 -0.43z"/>
  <path d="M535.19 314.13 c-8.22 -0.92 -17.58 -3.41 -17.58 -4.65 0 -0.81 9.41 -14.12 19.85 -28.07 17.25 -23.04 26.72 -38.24 42.35 -67.99 4.87 -9.30 6.38 -11.14 9.14 -11.14 6.22 0 7.25 5.73 4.65 27.04 -0.70 6.11 -1.57 14.39 -1.89 18.39 -0.70 8.44 -0.54 18.71 0.27 18.55 0.32 -0.05 1.08 -5.52 1.73 -12.06 1.14 -11.47 3.14 -26.45 3.62 -26.94 0.76 -0.76 0.97 7.52 0.70 26.39 -0.32 21.20 -0.81 27.48 -2.33 28.72 -0.38 0.32 -2.11 0.70 -3.84 0.87 -5.41 0.43 -9.52 -2.60 -11.03 -8.17 -1.46 -5.25 -1.51 -18.66 -0.22 -34.40 0.27 -3.14 0.22 -4.44 -0.16 -4.06 -0.32 0.32 -2.76 4.38 -5.46 9.09 -8.92 15.52 -19.58 31.32 -34.72 51.33 -7.09 9.36 -9.90 13.63 -9.09 13.90 1.19 0.38 16.39 -17.36 25.80 -30.18 7.79 -10.60 10.17 -13.03 12.71 -13.03 7.73 0 8.65 6.98 3.35 25.31 -0.97 3.52 -3.03 9.30 -4.60 12.93 -3.14 7.46 -2.16 6.71 -10.93 7.95 -2.92 0.38 -5.30 0.49 -5.30 0.27 0 -0.27 1.19 -3.08 2.65 -6.27 3.03 -6.71 3.57 -8.28 2.87 -8.28 -0.32 0 -1.03 0.59 -1.57 1.30 -0.54 0.70 -3.46 4.11 -6.54 7.57 -6.33 7.14 -5.25 6.71 -14.44 5.63z"/>
  <path d="M574.67 307 c1.35 -1.89 4.11 -6.98 6.17 -11.25 4.11 -8.71 5.63 -10.44 8.55 -10.01 2.33 0.38 4.49 1.89 4.49 3.19 0 3.35 -6.65 12.55 -11.79 16.28 -2.38 1.78 -8.71 5.25 -9.52 5.25 -0.22 0 0.76 -1.57 2.11 -3.46z"/>
  <path d="M350.75 300.88 c-4.71 -0.43 -14.17 -2.49 -19.63 -4.27 -8.38 -2.76 -21.96 -9.90 -24.45 -12.93 -0.38 -0.49 -0.76 -3.19 -0.97 -6.76 -0.22 -5.03 -0.16 -5.95 0.54 -5.95 0.43 0 3.46 1.73 6.71 3.84 6.87 4.44 17.15 9.57 22.93 11.52 8.33 2.76 12.44 3.30 24.34 3.30 10.22 0 11.52 -0.11 16.77 -1.46 3.14 -0.81 7.73 -2.16 10.22 -3.14 2.49 -0.92 4.60 -1.57 4.71 -1.51 0.22 0.22 -1.19 7.68 -2 10.55 -0.65 2.49 -0.54 2.43 -9.52 4.76 -7.95 2 -20.44 2.87 -29.64 2.06z"/>
  <path d="M506.52 299.04 c-5.63 -4.98 -3.62 -10.93 12.71 -37.54 20.61 -33.64 33.26 -57.55 40.24 -75.94 10.33 -27.15 12.22 -61.06 5.52 -97.52 -0.70 -3.95 -1.19 -7.84 -1.03 -8.65 0.49 -2.43 2.43 -3.84 8.65 -6.27 3.19 -1.24 6.22 -2.49 6.65 -2.76 2.06 -1.35 -0.65 -1.14 -8 0.70 -9.79 2.38 -16.66 3.35 -28.61 4.16 -8.38 0.54 -20.23 0.38 -27.96 -0.38 l-3.19 -0.32 0.38 -4.11 c0.22 -2.22 0.49 -4.71 0.65 -5.46 l0.27 -1.41 17.96 0 c23.64 0 30.18 -0.97 50.63 -7.52 5.19 -1.68 10.33 -3.19 11.47 -3.35 1.95 -0.32 2.11 -0.22 2.70 1.19 1.08 2.87 2.11 9.47 2.11 13.68 0 3.84 -0.11 4.27 -1.46 5.57 -1.30 1.24 -2 1.41 -4.76 1.41 -4.81 -0.05 -7.79 1.73 -10.06 6.17 -0.65 1.30 -1.73 2.33 -2.92 2.81 -2.16 0.92 -2.16 0.92 -1.03 7.90 3.41 20.93 4.22 41 2.38 57.66 -3.46 30.72 -12.82 54.14 -40.08 100.01 -7.52 12.66 -8.71 14.82 -8.49 15.52 0.59 1.78 15.79 -21.31 25.96 -39.59 15.85 -28.29 21.36 -42.94 24.77 -65.39 2.27 -15.09 2.65 -33.43 1.19 -60.36 -0.92 -16.60 1.03 -21.91 8.11 -21.91 3.14 0 5.57 1.84 6.33 4.76 1.24 5.03 1.73 46.57 0.59 58.52 -1.57 17.58 -6.06 36.02 -12.87 53.28 -7.73 19.47 -28.23 55.55 -44.19 77.61 -10.49 14.55 -20.66 25.80 -25.31 28.07 -3.57 1.73 -6.92 1.51 -9.30 -0.54z"/>
  <path d="M351.56 285.47 c-8.92 -0.92 -21.04 -4.44 -28.72 -8.33 -4.81 -2.43 -10.28 -6.22 -14.12 -9.90 l-3.68 -3.41 0 -40.78 0 -40.78 1.51 -0.65 c0.81 -0.32 3.30 -0.70 5.57 -0.87 5.25 -0.27 8.76 1.08 11.84 4.65 3.57 4.06 3.79 5.35 3.79 26.29 0.05 20.07 0.54 27.91 2 32.61 2 6.44 9.03 11.63 18.28 13.52 5.68 1.14 21.96 1.30 26.23 0.22 8.98 -2.27 14.71 -8.49 16.98 -18.44 0.49 -1.95 1.03 -4.49 1.35 -5.68 0.32 -1.51 0.49 2 0.54 12.28 l0.05 14.39 -2.60 2.22 c-3.41 2.81 -7.14 4.65 -12.39 6.11 -3.73 1.03 -5.57 1.19 -15.85 1.19 -9.95 -0.05 -12.44 -0.22 -17.31 -1.24 -11.41 -2.43 -19.96 -8 -23.96 -15.58 -4.22 -8.06 -5.19 -16.12 -5.25 -42.46 0 -15.90 -0.05 -16.71 -1.08 -17.74 -2.38 -2.38 -4.11 -0.92 -4.87 4.06 -0.92 5.46 -1.41 21.85 -1.03 32.18 0.54 14.06 2.33 22.23 5.90 27.26 6.33 8.76 24.83 16.77 41.65 17.90 5.52 0.43 15.31 -0.38 20.77 -1.62 3.79 -0.87 12.01 -3.62 13.85 -4.60 0.81 -0.43 1.35 -0.49 1.57 -0.11 0.16 0.27 0.27 3.08 0.16 6.22 l-0.16 5.68 -5.25 1.68 c-12.01 3.84 -23.58 5.03 -35.81 3.73z"/>
  <path d="M487.37 278.44 c-3.08 -1.62 -4.38 -4 -4.38 -8.17 0 -6.17 4.11 -15.31 18.28 -40.94 6.81 -12.28 13.58 -25.69 14.44 -28.50 0.87 -3.03 -1.03 -0.65 -5.19 6.49 -16.44 28.18 -22.77 37.70 -30.50 45.70 -5.90 6.17 -10.55 7.90 -14.87 5.57 -3.68 -1.95 -5.19 -5.73 -4.27 -10.49 1.03 -5.52 7.03 -17.63 17.36 -35.21 7.30 -12.44 9.74 -17.36 8.06 -16.33 -0.27 0.22 -3.84 5.08 -7.84 10.87 -11.41 16.28 -18.23 24.56 -23.74 28.72 -1.78 1.30 -3.62 2.38 -4.22 2.38 -0.65 0 -2.60 -2.16 -5.68 -6.22 -4.38 -5.84 -4.65 -6.33 -4.27 -8.17 0.54 -2.87 5.19 -11.57 12.12 -22.55 3.35 -5.30 6 -9.90 5.90 -10.22 -0.11 -0.32 -1.41 0.81 -2.92 2.54 -11.79 13.95 -20.44 22.99 -22.01 22.99 -0.87 0 -11.74 -14.17 -11.74 -15.31 0 -1.14 4.60 -8.60 11.84 -19.20 7.68 -11.20 10.17 -15.25 9.36 -15.25 -0.27 0 -2.43 1.30 -4.81 2.92 -6.71 4.49 -19.15 8.87 -30.02 10.55 l-2.65 0.43 -6.06 -7.90 -6.06 -7.90 -0.16 8.11 c-0.11 5.63 -0.32 8.22 -0.81 8.49 -0.87 0.54 -9.74 0.49 -18.39 -0.05 -7.79 -0.54 -9.79 -1.35 -11.30 -4.38 -1.19 -2.38 -1.24 -7.09 -0.11 -9.47 1.41 -2.97 2.92 -3.57 9.90 -4.11 25.96 -2 43.32 -7.52 54.25 -17.20 4 -3.57 9.09 -10.22 11.30 -14.87 1.89 -3.89 3.19 -8.65 2.49 -9.30 -0.16 -0.16 -1.30 1.57 -2.54 3.89 -4.76 8.55 -13.47 18.34 -20.23 22.66 -9.41 6 -22.66 9.47 -43.81 11.36 -7.19 0.65 -9.41 1.08 -10.55 1.89 -2.22 1.51 -4.27 5.73 -4.65 9.47 -0.38 4.27 0.54 51.65 1.08 52.90 0.22 0.49 0.81 0.92 1.41 0.92 0.92 0 0.97 -0.92 1.14 -18.23 0.16 -16.98 0.22 -18.39 1.19 -20.01 0.59 -0.97 1.68 -2 2.43 -2.27 0.92 -0.32 6.11 -0.38 14.12 -0.16 l12.71 0.38 0.16 2.87 0.16 2.81 -3.30 0 c-3.89 0 -5.95 0.76 -9.09 3.41 -1.89 1.62 -2.60 1.89 -4.11 1.62 -1.19 -0.16 -1.95 -0.05 -2.27 0.43 -0.27 0.43 -0.49 7.95 -0.49 16.71 l0 15.96 -1.46 2.54 c-1.19 1.95 -2.22 2.87 -4.60 4 -7.25 3.57 -15.20 0.92 -18.88 -6.27 -1.24 -2.49 -1.95 -21.09 -1.73 -46.24 l0.16 -17.90 1.95 -2.65 c1.03 -1.51 2.60 -3.89 3.46 -5.41 2.06 -3.73 3.95 -5.63 6.22 -6.22 1.03 -0.27 5.90 -0.87 10.76 -1.35 4.92 -0.43 12.22 -1.35 16.23 -1.95 7.68 -1.14 24.28 -4.76 28.61 -6.27 11.84 -4 17.74 -15.96 19.36 -39.10 0.32 -4.87 0.43 -5.19 2.22 -6.98 1.68 -1.68 2 -1.78 4.27 -1.51 3.35 0.38 5.95 2.54 8.44 7.19 2.70 5.03 3.84 10.01 3.84 16.71 -0.05 6.60 -1.57 13.47 -4.22 18.98 -4.06 8.38 -13.25 18.44 -22.88 25.04 -2.76 1.84 -4.92 3.52 -4.76 3.68 0.49 0.54 5.57 -1.51 9.63 -3.89 5.73 -3.35 12.12 -9.63 21.04 -20.61 7.30 -9.03 12.93 -14.87 15.85 -16.39 1.08 -0.59 1.51 -0.65 2.16 -0.11 1.62 1.35 8.98 11.52 8.98 12.39 0 3.03 -4.54 9.95 -19.85 30.23 -10.11 13.47 -16.39 22.39 -16.39 23.42 0 0.27 0.22 0.54 0.49 0.54 0.54 0 8.06 -9.09 19.47 -23.53 8.17 -10.28 20.44 -24.61 21.09 -24.61 0.43 0 9.47 11.09 11.03 13.58 0.87 1.35 0.87 1.46 -1.19 4.87 -1.19 1.95 -7.90 11.90 -14.93 22.18 -11.79 17.09 -17.58 26.07 -17.58 27.10 0 1.95 3.89 -3.14 21.36 -27.69 13.74 -19.25 15.47 -21.63 15.85 -21.63 0.38 0.05 8.71 10.55 11.09 13.95 0.65 0.97 1.35 1.73 1.62 1.73 0.22 0 0.38 -4.87 0.38 -10.82 0 -11.79 0.11 -12.17 2.87 -9.30 2.65 2.76 2.43 8 -0.76 16.33 -1.78 4.65 -7.79 15.63 -17.96 32.72 -7.90 13.25 -14.98 26.12 -14.98 27.21 0 0.38 0.27 0.54 0.54 0.38 1.62 -0.97 15.36 -23.26 27.80 -44.95 9.09 -15.79 12.66 -19.58 18.06 -18.98 2 0.22 2.87 0.65 4.27 2.16 2.33 2.60 3.08 5.57 2.70 11.30 -0.32 5.41 -3.03 14.12 -7.03 22.72 -2.65 5.63 -11.41 22.39 -17.42 33.16 -4.92 8.76 -11.36 21.58 -12.39 24.50 -1.24 3.46 0.05 2.92 4 -1.62 10.87 -12.76 25.26 -39.54 38.94 -72.37 8.92 -21.47 11.36 -31.97 12.55 -54.63 0.49 -9.41 0.49 -14.82 -0.05 -24.07 -0.70 -13.20 -1.51 -18.66 -3.08 -20.34 -0.92 -1.03 -1.41 -1.08 -6.17 -0.81 -2.81 0.16 -11.14 0.49 -18.50 0.65 l-13.41 0.32 0 -5.63 0 -5.68 15.85 -0.32 c8.65 -0.22 18.98 -0.54 22.93 -0.76 l7.09 -0.32 1.41 1.51 c3.62 3.89 5.73 20.01 5.73 43.22 0 20.61 -1.19 31.69 -4.87 46.03 -2.38 9.25 -3.57 12.60 -9.74 27.53 -7.14 17.25 -11.41 26.23 -20.01 41.70 -3.41 6.11 -11.57 19.47 -15.36 25.15 -4.44 6.71 -10.55 12.87 -14.66 14.93 -4.27 2.06 -8.98 2.33 -12.12 0.65z"/>
  <path d="M356.43 254.21 c-10.71 -1.03 -17.20 -4.76 -20.82 -11.84 -2.76 -5.46 -3.03 -7.90 -3.52 -32.24 -0.27 -12.49 -0.49 -24.99 -0.49 -27.69 l-0.05 -5.03 -13.25 0 -13.25 0 0 -5.57 0 -5.63 15.58 -0.32 c8.76 -0.22 16.44 -0.16 17.63 0.16 1.19 0.27 2.76 1.08 3.52 1.89 l1.41 1.35 0.32 30.45 c0.22 21.20 0.54 31.26 0.97 33.21 0.76 3.14 2.33 5.79 4.38 7.25 3.19 2.33 13.20 3.41 19.42 2.06 3.57 -0.76 6.65 -3.03 8 -5.95 1.46 -3.08 2.33 -8.82 2.33 -15.20 0 -6.76 0.87 -16.66 1.68 -19.31 1.30 -4.44 5.25 -7.63 9.36 -7.63 3.79 0 3.57 -0.81 3.52 14.55 -0.05 13.25 -0.11 13.68 -0.81 9.79 -0.38 -2.22 -0.70 -4.11 -0.70 -4.22 -0.05 -0.11 -0.27 0 -0.59 0.16 -0.27 0.16 -0.54 2.11 -0.54 4.22 0 5.30 -0.92 13.47 -1.89 17.42 -3.41 13.47 -14.77 19.85 -32.18 18.12z"/>
  <path d="M411.92 189.25 c-1.95 -2.49 -3.46 -4.76 -3.41 -5.03 0.11 -0.27 2.70 -1.08 5.79 -1.78 3.08 -0.70 8.22 -2.16 11.36 -3.19 3.19 -0.97 6.06 -1.84 6.38 -1.84 1.24 0 0.59 1.46 -3.46 7.46 -4.38 6.60 -5.84 7.73 -10.87 8.55 l-2.22 0.32 -3.57 -4.49z"/>
  <path d="M535.51 172.70 c-1.24 -2.49 -3.57 -4.76 -5.63 -5.52 -0.87 -0.32 -2.92 -0.59 -4.65 -0.59 -2.76 0 -3.25 -0.16 -4.81 -1.78 -1.19 -1.24 -1.73 -2.33 -1.73 -3.52 0 -2.87 -1.62 -6.06 -3.95 -7.73 -1.19 -0.87 -2.49 -1.57 -2.92 -1.57 -0.54 0 -0.70 -1.35 -0.70 -6 l0 -6.06 4.76 4.54 c6.27 6 16.12 14.55 16.82 14.55 0.27 0 0.65 -0.43 0.81 -0.92 2.54 -8.60 5.41 -51.49 3.46 -51.60 -0.38 0 -6.44 -0.05 -13.41 -0.11 l-12.71 -0.11 -0.16 -1.89 c-0.11 -1.03 -0.05 -3.68 0.16 -5.79 l0.38 -3.95 16.66 0 16.66 0 1.68 1.41 c0.92 0.76 1.89 2.27 2.22 3.35 1.24 4.49 0.49 29.21 -1.41 46.62 -1.73 15.90 -3.73 24.18 -6.44 26.88 -2.38 2.38 -3.79 2.33 -5.08 -0.22z"/>
  <path d="M305.05 156.09 l0 -5.73 5.84 0 c7.90 0 19.53 -0.92 23.91 -1.95 4.65 -1.03 6.71 -2.33 8.22 -5.19 1.14 -2.16 1.19 -2.92 1.08 -10.06 -0.11 -8.55 0.32 -10.28 3.03 -11.68 2.06 -1.03 4 -1.30 18.50 -2.22 19.04 -1.30 29.64 -2.87 30.18 -4.60 0.22 -0.59 -3.08 -0.65 -20.77 -0.22 -32.18 0.76 -60.20 0.65 -65.55 -0.27 l-4.44 -0.76 0.11 -10.60 0.16 -10.60 3.35 -0.38 c1.89 -0.22 13.09 -0.76 24.88 -1.19 37.64 -1.51 63.12 -3.35 65.72 -4.71 0.54 -0.27 0.97 -0.87 0.97 -1.30 0 -1.51 -1.78 -1.78 -8.11 -1.03 -29.15 3.41 -61.23 5.14 -77.61 4.22 l-8.65 -0.49 0.16 -2.97 c0.05 -1.62 0.43 -4.16 0.81 -5.68 l0.65 -2.70 6.76 0.27 c17.96 0.70 37.21 -0.05 66.26 -2.76 10.06 -0.92 19.04 -1.51 20.55 -1.30 3.73 0.43 6.71 2.27 8.76 5.30 4 6 2.27 14.82 -3.52 18.12 -4.60 2.54 -26.88 4.60 -66.91 6.06 -17.36 0.65 -19.42 0.87 -18.88 1.73 0.27 0.43 7.36 0.49 26.12 0.11 14.17 -0.27 32.83 -0.49 41.43 -0.49 l15.69 0 3.03 1.46 c5.84 2.92 7.09 9.03 2.92 14.98 -4.27 6.17 -20.17 10.11 -47.38 11.68 l-6.33 0.38 -0.27 6.06 c-0.27 6.76 -1.08 9.47 -4 13.74 -4.98 7.30 -13.31 9.79 -34.34 10.22 l-12.33 0.32 0 -5.79z"/>
  <path d="M524.37 146.36 c-1.78 -0.76 -11.14 -10.71 -13.52 -14.33 -2.65 -3.95 -1.68 -8.55 2.06 -9.74 2.38 -0.81 3.95 -0.22 6.38 2.33 0.97 1.08 2 1.95 2.22 1.95 0.22 0 0.43 -1.57 0.43 -3.52 0 -4.22 -0.22 -4.33 -6.60 -4.87 l-4.22 -0.38 0 -4.16 0 -4.22 8.82 0.27 c9.30 0.22 10.38 0.49 12.06 3.14 0.49 0.70 1.14 2.38 1.35 3.62 0.49 2.60 -0.38 20.88 -1.19 25.04 -0.87 4.44 -4.16 6.54 -7.79 4.87z"/>
  <path d="M305.05 140.90 l0 -5.68 3.73 0 c3.95 0 14.28 -0.92 15.90 -1.41 1.41 -0.43 0.87 -1.41 -1.03 -1.95 -0.87 -0.22 -5.41 -0.97 -10.06 -1.57 l-8.55 -1.19 0 -5.68 0 -5.68 5.03 0.43 c6.60 0.49 15.90 2.11 20.12 3.52 6.17 2.06 10.11 6.76 10.22 12.17 0.05 5.30 -3.41 8.55 -11.20 10.49 -4.92 1.30 -13.25 2.22 -19.63 2.22 l-4.54 0 0 -5.68z"/>
  <path d="M360.05 145.49 c-1.68 -1.35 -2.27 -3.73 -1.46 -6.17 1.03 -3.14 1.89 -3.52 9.79 -4.44 14.12 -1.57 40.40 -6.71 43.16 -8.38 2.27 -1.35 5.30 -7.79 6.33 -13.47 1.30 -6.76 0.81 -18.50 -1.08 -25.64 -1.89 -7.36 -4.33 -12.39 -7.14 -14.87 -4.38 -3.84 -6.17 -3.95 -33.75 -1.95 -30.34 2.16 -45.22 2.65 -56.47 1.95 -5.41 -0.38 -9.95 -0.81 -10.22 -1.08 -0.49 -0.49 2.11 -7.79 4.44 -12.33 0.87 -1.73 2.81 -4.87 4.33 -7.03 2.27 -3.19 3.08 -3.95 4.49 -4.16 0.97 -0.16 11.52 -0.92 23.42 -1.73 11.90 -0.76 21.85 -1.62 22.12 -1.84 1.14 -1.08 -2.27 -1.24 -21.69 -0.92 -22.72 0.32 -21.69 0.54 -15.69 -3.52 10.60 -7.19 26.34 -10.01 43.11 -7.73 11.03 1.46 20.50 4.87 23.42 8.33 2.97 3.57 1.46 9.47 -3.03 11.41 -4.76 2.06 -18.34 3.62 -49.06 5.68 -24.83 1.62 -26.50 1.78 -26.50 2.70 0 0.38 0.76 0.76 1.78 0.87 3.41 0.38 34.94 -0.54 45.81 -1.35 33.26 -2.49 39.43 -2.43 45.65 0.38 12.22 5.63 20.17 27.10 18.17 49.11 -1.46 15.69 -7.25 25.80 -16.50 28.77 -3.95 1.30 -25.53 5.57 -36.02 7.14 -11.36 1.68 -15.52 1.73 -17.42 0.27z"/>
  <path d="M220.46 126.94 c-3.84 -2.43 -7.46 -5.08 -8.06 -5.84 -1.78 -2.49 -0.92 -4.38 4.60 -9.63 9.41 -8.98 15.69 -18.66 18.34 -28.45 1.03 -3.68 1.24 -6.06 1.41 -16.50 0.16 -10.33 0 -13.85 -1.14 -23.26 -0.70 -6.11 -1.19 -11.25 -1.03 -11.47 0.11 -0.27 3.52 -0.43 7.46 -0.43 l7.30 0 1.78 3.68 c6.27 12.55 9.47 22.28 10.93 33.48 1.84 14.17 0.22 24.12 -5.68 34.40 -1.46 2.60 -2.70 5.03 -2.70 5.35 0 1.08 3.73 -2.92 6.27 -6.71 4.87 -7.25 6.81 -14.60 6.87 -25.31 0 -10.66 -2.11 -19.42 -7.46 -31.37 -1.41 -3.14 -3.14 -7.19 -3.84 -9.09 l-1.30 -3.35 1.24 0 c2.43 0 9.84 2.16 13.79 4.06 16.66 7.90 26.45 27.31 23.91 47.49 -1.19 9.57 -4.44 16.88 -10.44 23.42 -3.08 3.35 -10.66 8.87 -12.17 8.87 -1.41 0 -0.27 -3.68 2.81 -9.14 6.92 -12.12 9.52 -20.17 9.52 -29.48 0 -6.38 -0.92 -11.09 -3.19 -16.82 -1.78 -4.38 -3.89 -7.90 -4.22 -6.92 -0.11 0.32 0.27 2.49 0.87 4.81 4.44 17.47 2 34.94 -6.71 48.35 -3.95 6.17 -10.33 13.85 -12.01 14.50 -4.16 1.62 -15.04 3.30 -21.36 3.35 l-3.68 0 -0.05 -2 c-0.16 -5.03 0.32 -6.11 6.76 -14.44 10.28 -13.36 12.98 -21.69 11.68 -35.59 -1.08 -11.41 -2.70 -14.66 -2.70 -5.46 0 12.01 -1.68 19.80 -6.22 29.15 -2.97 6.17 -7.41 12.55 -12.55 18.06 -1.57 1.73 -2.87 3.41 -2.87 3.79 0 0.38 0.59 1.35 1.35 2.27 1.51 1.78 1.84 4.76 0.54 4.76 -0.54 0 -0.81 0.81 -0.92 2.97 l-0.16 2.92 -6.98 -4.44z"/>
  <path d="M682.03 128.78 c0 -2.16 -0.22 -2.81 -1.08 -3.30 -1.57 -0.87 -1.35 -2.92 0.59 -5.08 1.84 -2.16 1.73 -2.76 -1.14 -5.46 -2.22 -2.06 -6.71 -7.68 -9.57 -11.90 -6.60 -9.79 -9.90 -21.58 -9.90 -35.26 0 -12.12 -2.16 -4.65 -2.54 8.76 -0.22 7.95 -0.16 9.03 1.03 13.03 1.62 5.52 4.54 10.66 10.82 18.88 5.79 7.68 6.87 9.84 6.92 13.68 l0 2.81 -3.46 0 c-7.19 0 -20.72 -2.33 -23.04 -3.95 -3.19 -2.22 -12.22 -15.25 -15.20 -21.91 -4.76 -10.60 -5.79 -25.96 -2.65 -40.40 1.24 -5.63 1.19 -5.14 0.65 -5.14 -0.92 0 -4.49 8.22 -5.63 12.87 -0.92 3.62 -1.19 6.27 -1.14 11.47 0.05 10.22 2.06 16.55 8.92 28.45 2.92 5.14 4.60 9.95 3.35 9.95 -1.35 0 -8.33 -4.92 -11.47 -8.06 -7.90 -7.95 -11.41 -17.20 -11.47 -29.86 0 -12.44 3.14 -22.34 9.74 -30.72 2.92 -3.73 9.36 -8.76 14.17 -11.09 5.73 -2.81 15.04 -5.03 15.04 -3.57 0 0.27 -1.62 4.11 -3.57 8.49 -5.79 12.87 -7.84 19.58 -8.87 29.21 -1.03 9.36 0.65 19.36 4.38 26.83 2.33 4.60 8.11 11.84 8.87 11.14 0.16 -0.16 -1.08 -2.70 -2.70 -5.68 -5.41 -9.74 -7.14 -18.17 -6.17 -30.78 0.92 -12.33 3.03 -19.85 9.03 -32.29 l4.06 -8.55 7.52 0 c6.76 0 7.46 0.11 7.46 0.97 0 0.49 -0.49 4.60 -1.08 9.03 -0.65 4.49 -1.30 12.87 -1.46 18.66 -0.43 15.14 0.70 22.61 4.76 31.26 2.87 6.22 6.17 10.66 13.25 17.96 3.30 3.41 6.27 6.76 6.65 7.41 0.87 1.73 0.70 4.22 -0.32 5.19 -0.76 0.65 -9.68 6.49 -14.33 9.36 -0.22 0.16 -0.43 -0.92 -0.43 -2.43z"/>
  <path d="M83.73 119.15 c-2.06 -0.54 -1.78 -5.90 0.43 -8.11 1.57 -1.57 5.03 -1.73 6.33 -0.27 1.03 1.14 4.71 7.57 4.71 8.28 0 0.49 -9.68 0.59 -11.47 0.11z"/>
  <path d="M98.11 117.26 c-7.57 -12.01 -13.74 -30.18 -13.03 -38.62 0.65 -8.22 7.19 -11.95 13.52 -7.73 4.49 2.97 8.06 8.17 19.31 28.34 3.68 6.54 7.73 13.52 9.03 15.58 1.30 2 2.33 3.89 2.33 4.16 0 0.32 -2.49 0.54 -6.22 0.54 l-6.22 0 -1.35 -2.16 c-0.76 -1.14 -3.30 -5.63 -5.73 -9.84 -2.38 -4.27 -5.84 -10.33 -7.68 -13.52 -1.84 -3.25 -3.52 -5.84 -3.73 -5.84 -1.68 0 1.24 8.06 7.25 19.96 2.87 5.79 5.14 10.71 4.98 10.98 -0.16 0.22 -2.70 0.43 -5.63 0.43 l-5.41 0 -1.41 -2.27z"/>
  <path d="M779.93 119.15 c0 -0.27 0.49 -1.14 1.14 -2.06 2.06 -3.08 8.49 -14.06 13.20 -22.72 10.49 -19.20 15.69 -25.15 22.01 -25.15 5.25 0 7.95 3.79 8 10.93 0 8.17 -2.76 17.09 -9.19 29.91 l-4.60 9.19 -5.35 0.16 c-2.97 0.05 -5.73 0 -6.11 -0.11 -0.54 -0.22 0.16 -2.06 2.76 -6.92 5.79 -10.93 10.87 -23.58 9.90 -24.56 -0.43 -0.43 -3.08 3.79 -9.30 14.93 -2.92 5.19 -6.38 11.09 -7.68 13.14 l-2.33 3.62 -6.22 0 c-3.41 0 -6.22 -0.16 -6.22 -0.38z"/>
  <path d="M814.54 118.77 c0 -1.08 3.62 -7.46 4.71 -8.28 1.57 -1.24 4.71 -0.87 6.17 0.70 1.08 1.14 1.30 1.95 1.30 4.71 l0 3.35 -6.06 0.16 c-5.03 0.11 -6.11 0 -6.11 -0.65z"/>
  <path d="M68.96 117.15 c-6.92 -1.62 -9.47 -2.70 -9.47 -3.95 0 -0.54 0.49 -2.92 1.03 -5.30 3.73 -15.41 4 -28.56 0.81 -39.16 -1.35 -4.54 -2 -3.46 -1.57 2.54 0.65 8.38 0.43 20.99 -0.49 26.18 -1.14 6.17 -3.41 13.41 -4.44 13.79 -1.08 0.38 -6 -3.03 -9.90 -6.87 -3.25 -3.19 -6.87 -9.52 -8.38 -14.50 -1.51 -5.14 -2.11 -13.47 -1.46 -19.96 0.32 -3.19 0.76 -6.38 0.92 -7.03 0.70 -2.60 4.60 -1.62 6.17 1.51 1.57 2.97 3.57 11.84 4.65 20.23 0.54 4 1.14 7.30 1.35 7.30 1.51 0 1.19 -14.55 -0.65 -28.40 -1.24 -9.74 -1.14 -13.85 0.59 -16.88 1.57 -2.81 3.46 -4.06 6.54 -4.38 4.33 -0.38 7.41 2.22 11.47 9.63 4.06 7.36 7.57 20.01 8.22 29.21 0.16 2.54 0.43 5.68 0.59 7.03 0.54 4.06 1.35 1.19 1.68 -5.57 0.49 -10.76 -1.89 -20.61 -8.55 -35.53 -2.11 -4.71 -3.41 -8.28 -3.57 -10.11 l-0.32 -2.87 2.38 -1.03 c3.57 -1.51 8.06 -1.89 10.49 -0.92 7.95 3.35 34.13 32.24 43.05 47.49 6.33 10.87 11.41 26.66 10.66 33.16 -0.16 1.41 -0.59 0.87 -3.79 -4.65 -1.95 -3.35 -5.79 -10.17 -8.55 -15.09 -9.09 -16.28 -14.77 -23.80 -20.01 -26.39 -1.51 -0.70 -4.49 -3.52 -8.49 -7.90 -7.57 -8.33 -8.11 -8.60 -6.11 -2.70 0.65 1.73 1.62 4.98 2.16 7.19 l1.08 4 -1.84 2.06 c-2.43 2.65 -2.81 3.41 -3.57 7.36 -0.81 4.06 -0.11 10.11 1.95 16.88 1.73 5.68 1.51 7.57 -1.51 13.68 -1.24 2.49 -2.65 5.95 -3.14 7.73 -0.81 3.14 -0.92 3.25 -2.70 3.35 -1.03 0.05 -4.33 -0.43 -7.30 -1.14z"/>
  <path d="M830.77 115.64 c-0.32 -1.57 -1.84 -5.30 -3.30 -8.33 -1.78 -3.52 -2.76 -6.17 -2.81 -7.57 -0.05 -1.14 0.65 -4.65 1.51 -7.79 1.24 -4.49 1.57 -6.81 1.62 -11.09 0 -6.33 -0.65 -8.60 -3.35 -11.36 -1.73 -1.78 -1.89 -2.16 -1.57 -4.16 0.22 -1.19 1.19 -4.71 2.16 -7.79 1.03 -3.08 1.68 -5.63 1.46 -5.63 -0.43 0 -9.36 9.09 -11.52 11.74 -0.76 0.92 -2.54 2.27 -4 3.03 -5.63 2.87 -10.71 9.68 -21.04 28.23 -12.17 21.85 -12.39 22.07 -11.09 13.25 1.30 -8.92 4.87 -19.04 9.63 -27.21 5.19 -9.09 16.77 -23.37 29.21 -36.18 8.44 -8.65 12.55 -12.06 15.31 -12.93 2.49 -0.70 8.65 0.32 10.55 1.78 1.24 1.03 1.41 1.46 1.19 3.62 -0.16 1.41 -1.73 5.90 -3.68 10.33 -6.44 14.87 -8.11 21.36 -8.11 31.97 0 7.14 0.32 10.22 1.14 10.22 0.27 0 0.49 -1.19 0.49 -2.70 0 -4 1.51 -14.22 2.97 -20.01 2.81 -11.36 8.49 -21.63 13.31 -24.12 3.73 -1.89 8.33 -0.22 10.44 3.84 1.57 3.03 1.68 7.19 0.38 18.39 -1.84 16.71 -2.06 26.23 -0.59 26.23 0.27 0 0.65 -1.14 0.81 -2.54 2.11 -15.52 4.16 -23.96 6.33 -25.96 1.68 -1.57 3.84 -2.06 4.65 -1.08 1.14 1.35 1.89 9.52 1.57 16.60 -0.49 10.82 -3.46 18.98 -9.19 25.26 -2.97 3.25 -8.98 7.73 -10.28 7.73 -0.92 0 -2.49 -3.68 -3.84 -8.98 -1.68 -6.65 -2.11 -12.06 -1.84 -24.34 0.11 -6.65 0.05 -12.12 -0.16 -12.12 -0.27 0 -0.70 1.03 -1.03 2.33 -0.32 1.24 -0.87 3.14 -1.14 4.16 -0.32 1.03 -0.70 5.57 -0.87 10.01 -0.32 8.82 0.38 14.98 2.87 25.58 0.70 3.08 1.30 5.73 1.30 5.84 0 0.92 -13.63 4.54 -17.15 4.54 -1.62 0 -1.73 -0.16 -2.33 -2.81z"/>
  <path d="M189.57 113.85 c-3.57 -0.70 -10.01 -1.73 -14.22 -2.22 -5.14 -0.65 -8.17 -1.24 -8.82 -1.78 -0.76 -0.59 -1.84 -3.89 -3.73 -11.41 -5.08 -20.17 -10.76 -35.16 -17.15 -45.16 -3.35 -5.25 -11.74 -13.36 -18.50 -17.85 l-5.57 -3.79 9.25 -0.16 9.25 -0.11 3.08 2.27 c8.87 6.71 17.09 19.90 22.55 36.24 2.38 7.25 7.14 22.77 8.22 27.21 1.03 4 -0.43 3.46 13.36 5.41 15.58 2.22 17.36 1.89 23.09 -4.11 9.95 -10.44 14.28 -28.23 11.68 -47.97 -0.70 -5.30 -1.08 -6.60 -1.68 -5.95 -0.16 0.11 -0.87 5.79 -1.62 12.55 -2.49 22.34 -4.44 30.56 -8.55 36.67 -1.24 1.84 -3.35 4.11 -4.60 5.03 -2 1.35 -2.87 1.62 -5.63 1.62 -3.03 0 -3.35 -0.11 -5.03 -2 -0.97 -1.08 -2.06 -2.87 -2.38 -4.06 -0.81 -2.81 -0.70 -11.74 0.22 -25.58 0.81 -11.74 1.03 -32.18 0.38 -34.51 -0.54 -1.78 -1.41 -1.51 -1.89 0.54 -0.43 1.84 -1.24 24.07 -1.78 47.22 -0.16 8.76 -0.49 13.74 -0.87 14.22 -1.78 2.11 -5.35 2.81 -7.90 1.51 -3.68 -1.89 -5.08 -4.71 -9.03 -17.85 -4.54 -15.31 -8.55 -26.29 -12.55 -34.34 -2.97 -6 -4.16 -7.84 -6.98 -10.71 l-3.46 -3.41 7.79 0 7.79 0 1.62 2.60 c2.92 4.49 6.38 12.22 9.30 20.61 1.57 4.49 2.92 8.11 3.03 8 0.11 -0.05 0.43 -6.60 0.70 -14.44 0.27 -7.90 0.70 -14.87 0.92 -15.58 0.32 -1.19 0.38 -1.19 12.17 -1.19 10.82 0 11.90 0.11 12.28 0.92 0.49 1.24 0.49 23.15 0 35.32 -0.38 8.76 -0.32 9.30 0.38 7.09 1.03 -3.03 2.06 -10.76 3.79 -27.91 0.76 -7.41 1.51 -13.95 1.68 -14.44 0.27 -0.87 1.19 -0.97 9.68 -0.97 l9.36 0 1.14 3.35 c5.79 17.79 4.81 41.70 -2.27 56.79 -4.33 9.19 -11.90 17.74 -19.42 21.80 -3.95 2.16 -10.06 2.33 -19.09 0.54z"/>
  <path d="M702.69 114.23 c-5.73 -2.27 -14.17 -10.33 -18.71 -17.90 -5.03 -8.33 -7.41 -16.55 -8.38 -28.83 -0.92 -11.09 0.87 -27.37 3.73 -33.86 l1.03 -2.27 9.19 0 c5.46 0 9.30 0.22 9.52 0.54 0.16 0.27 1.03 7.63 1.95 16.33 1.57 15.85 2.16 20.34 3.25 25.80 1.19 5.90 1.46 1.57 0.70 -10.49 -0.92 -13.47 -0.81 -30.72 0.11 -31.64 0.38 -0.38 4.65 -0.49 12.44 -0.43 l11.84 0.16 0.38 2.43 c0.22 1.35 0.59 8.49 0.76 15.90 0.22 7.36 0.54 13.09 0.81 12.66 0.22 -0.38 1.30 -3.52 2.38 -6.92 2.43 -7.52 5.90 -15.58 8.92 -20.61 l2.22 -3.73 7.84 0 7.90 0 -3.19 3.14 c-5.79 5.68 -11.30 18.17 -19.09 43.11 -2.16 6.87 -4.49 13.52 -5.14 14.87 -1.84 3.62 -4.06 5.46 -6.92 5.79 -2.06 0.27 -2.60 0.05 -4.27 -1.41 l-1.89 -1.62 -0.38 -20.44 c-0.38 -20.23 -1.08 -37.16 -1.73 -40.62 -0.38 -2 -1.35 -2.06 -1.89 -0.05 -0.70 2.43 -0.49 20.44 0.38 31.86 0.43 6.22 0.76 15.20 0.65 19.85 -0.16 9.74 -0.87 11.95 -4.22 13.79 -5.14 2.76 -11.47 -0.97 -15.41 -9.03 -2.11 -4.27 -2.97 -7.41 -4.60 -16.17 -0.92 -5.25 -3.79 -27.64 -3.79 -29.86 0 -0.43 -0.22 -0.70 -0.49 -0.54 -1.78 1.14 -2.60 21.09 -1.19 28.99 2.38 13.47 9.79 26.23 17.25 29.86 2.06 0.97 2.97 1.08 7.30 0.81 4.98 -0.32 21.85 -2.76 22.28 -3.19 0.16 -0.16 1.95 -6.06 4 -13.20 4.92 -16.98 7.03 -22.93 10.87 -30.78 4.92 -10.11 9.52 -16.33 16.44 -22.39 l3.19 -2.76 9.14 0 c5.46 0 9.03 0.22 8.82 0.49 -0.16 0.27 -2.22 1.84 -4.54 3.52 -12.49 8.76 -19.47 17.42 -25.58 31.69 -3.03 7.09 -7.73 21.63 -9.63 29.75 -3.14 13.25 -2.97 12.87 -5.30 13.47 -1.08 0.27 -4.87 0.92 -8.33 1.41 -3.52 0.43 -9.74 1.46 -13.79 2.16 -8.65 1.57 -13.58 1.68 -16.82 0.38z"/>
  <path d="M526.53 60.25 c-1.19 -0.11 -4.54 -0.49 -7.46 -0.81 -6.11 -0.70 -5.84 -0.11 -2.70 -6.98 l1.84 -4.11 16.88 0.05 c16.12 0 21.20 -0.38 21.20 -1.62 0 -0.32 -5.30 -0.70 -12.98 -0.87 -11.95 -0.32 -17.42 -0.65 -20.77 -1.35 -1.24 -0.27 -1.24 -0.32 1.08 -2.76 1.30 -1.35 4 -3.52 6 -4.81 l3.62 -2.38 8.33 0 c4.65 0 12.93 -0.38 18.44 -0.81 8.98 -0.76 10.49 -0.76 13.95 0 5.03 1.03 8.87 2.92 12.33 6.06 4.27 3.84 4.38 4.33 1.57 6.81 -5.90 5.25 -18.17 9.84 -33.48 12.55 -4.92 0.87 -22.88 1.51 -27.85 1.03z"/>
  <path d="M543.57 31.91 c0.76 -0.22 4.87 -0.43 9.19 -0.38 7.73 0 7.79 0 2.70 0.38 -7.09 0.59 -13.63 0.54 -11.90 0z"/>
 </g>
</svg>